<?xml version="1.0" encoding="utf-8"?>
<!-- Generator: Adobe Illustrator 22.0.0, SVG Export Plug-In . SVG Version: 6.00 Build 0)  -->
<svg version="1.1" id="Layer_1" xmlns="http://www.w3.org/2000/svg" xmlns:xlink="http://www.w3.org/1999/xlink" x="0px" y="0px"
	 viewBox="0 0 500 500" style="enable-background:new 0 0 500 500;" xml:space="preserve">
<g>
	<g>
		<g>
			<path d="M403.6,49H33.8C17.1,49,3.5,61.9,3.5,77.8v292.4c0,15.9,13.6,28.8,30.3,28.8h242.5c0,0,7.2-2.6,7.2-6.3
				c0-3.8-3.2-6.9-7.2-6.5H249v-44.7c0.3-11.7-7.1-22.1-18.4-26.6l-37.9-15c-3.1-1.2-5.3-7.2-5.3-7.2V282
				c9.7-9.4,15.4-22.1,15.4-35.6v-29.3c0-23.9-24-43.4-53.4-43.4s-53.4,19.5-53.4,43.4v29.3c0,13.4,5.7,26.2,15.4,35.6v10.7
				c0,3.1-2,6-5,7.2l-37.9,15c-11.3,4.5-18.7,14.9-18.7,26.6v44.7H33.8c-8.8,0-15.9-6.8-15.9-15.1V136.7h401.5v114.8
				c0,3.3,2.3,6.2,5.6,6.9c4.7,1,8.8-2.4,8.8-6.8V77.8C433.9,61.9,420.3,49,403.6,49z M64.2,341.8c0-6.1,3.9-11.6,9.8-13.9l37.9-15
				c8.4-3.3,13.9-11.2,13.9-19.8v-1.9c2.6,0.2,5.3-1.1,6.7-3.4c2-3.3,0.8-7.5-2.6-9.4c-12-6.6-19.5-18.9-19.5-32.1v-29.3
				c0-16.4,17.5-29.7,39-29.7s39,13.3,39,29.7v29.3c0,13.1-7.4,25.4-19.4,32c-3.2,1.8-4.6,5.5-3.1,8.7c1.2,2.6,3.9,4.1,6.6,4.1
				c0.2,0,0.3,0,0.5,0v1.9c0,8.7,5.5,16.5,13.9,19.8l37.9,15c5.9,2.3,9.8,7.8,9.8,13.9v44.3H64.2V341.8z M419.5,122.1H17.9V77.8
				c0-8.3,7.1-15.1,15.9-15.1h369.7c8.8,0,15.9,6.8,15.9,15.1V122.1z"/>
		</g>
	</g>
	<g>
		<g>
			<path d="M41.8,85.5h-0.3c-2.6,0-5,1.3-6.1,3.5c-3.1,6.1,2.9,12,9.3,9.7c1.8-0.7,3.2-2,3.9-3.8C50.4,90.1,46.7,85.5,41.8,85.5z"/>
		</g>
	</g>
	<g>
		<g>
			<path d="M88,85.5h-0.3c-2.6,0-5,1.3-6.1,3.5c-3.1,6.1,2.9,12,9.3,9.7c1.8-0.7,3.2-2,3.9-3.8C96.6,90.1,92.8,85.5,88,85.5z"/>
		</g>
	</g>
	<g>
		<g>
			<path d="M64.8,85.5h-0.3c-2.6,0-5,1.3-6.1,3.5c-3.1,6.1,2.9,12,9.3,9.7c1.8-0.7,3.2-2,3.9-3.8C73.4,90.1,69.7,85.5,64.8,85.5z"/>
		</g>
	</g>
	<g>
		<g>
			<path d="M396.2,85.5H119.1c-3.7,0-7,2.5-7.4,6c-0.5,4.2,2.9,7.7,7.2,7.7H396c3.7,0,7-2.5,7.4-6C403.9,89.1,400.5,85.5,396.2,85.5
				z"/>
		</g>
	</g>
	<g>
		<g>
			<path d="M491.8,296.2l-104-34.3c-1.5-0.5-3.2-0.5-4.7,0l-74.8,24.7c-3.8,1.2-5.8,5.1-4.4,8.7c1.3,3.6,5.4,5.5,9.2,4.2l72.4-23.9
				l96.5,31.8c-0.8,8.8-3.7,28.4-13.1,51.8c-11.4,28.6-35.1,68.6-83.4,98.4c-48.1-29.7-71.8-69.4-83.2-97.9
				c-12.8-31.9-13.6-57-13.6-57.2c-0.1-3.8-3.3-6.8-7.4-6.7c-4,0.1-7.2,3.2-7.1,7c0,1.1,0.8,27.3,14.3,61.3
				c12.5,31.3,38.8,75.4,93.1,107.5c1.2,0.7,2.5,1,3.8,1c1.3,0,2.6-0.3,3.8-1c54.3-32.1,80.6-76.1,93.1-107.5
				c13.6-34,14.3-60.2,14.3-61.3C496.7,299.8,494.8,297.1,491.8,296.2z"/>
		</g>
	</g>
	<g>
		<g>
			<path d="M432.4,334.8c-2.8-2.7-7.4-2.7-10.2,0l-44.7,42.4L350.9,352c-2.8-2.7-7.4-2.7-10.2,0c-2.8,2.7-2.8,7,0,9.7l31.7,30
				c1.4,1.3,3.3,2,5.1,2s3.7-0.7,5.1-2l49.8-47.2C435.2,341.8,435.2,337.5,432.4,334.8z"/>
		</g>
	</g>
	<g>
		<g>
			<path d="M372.8,166H249.5c-8.2,0-14.9,6.3-14.9,14.2V202c0,7.8,6.7,14.2,14.9,14.2h123.3c8.2,0,14.9-6.4,14.9-14.2v-21.9
				C387.7,172.3,381,166,372.8,166z M373.3,202c0,0.3-0.2,0.5-0.5,0.5H249.5c-0.3,0-0.5-0.2-0.5-0.5v-21.9c0-0.3,0.2-0.5,0.5-0.5
				h123.2c0.3,0,0.5,0.2,0.5,0.5V202z"/>
		</g>
	</g>
	<g>
		<g>
			<path d="M342.3,231.7h-92.2c-3.7,0-7,2.5-7.4,6c-0.5,4.2,2.9,7.7,7.2,7.7H342c3.7,0,7-2.5,7.4-6
				C350,235.3,346.6,231.7,342.3,231.7z"/>
		</g>
	</g>
	<g>
		<g>
			<path d="M303.7,261.9h-53.7c-3.7,0-7,2.5-7.4,6c-0.5,4.2,2.9,7.7,7.2,7.7h53.7c3.7,0,7-2.5,7.4-6
				C311.4,265.4,308,261.9,303.7,261.9z"/>
		</g>
	</g>
	<g>
	</g>
	<g>
	</g>
	<g>
	</g>
	<g>
	</g>
	<g>
	</g>
	<g>
	</g>
	<g>
	</g>
	<g>
	</g>
	<g>
	</g>
	<g>
	</g>
	<g>
	</g>
	<g>
	</g>
	<g>
	</g>
	<g>
	</g>
	<g>
	</g>
</g>
</svg>
