<?xml version="1.0" encoding="utf-8"?>
<!-- Generator: Adobe Illustrator 22.0.0, SVG Export Plug-In . SVG Version: 6.00 Build 0)  -->
<svg version="1.1" id="Layer_1" xmlns="http://www.w3.org/2000/svg" xmlns:xlink="http://www.w3.org/1999/xlink" x="0px" y="0px"
	 viewBox="0 0 500 500" style="enable-background:new 0 0 500 500;" xml:space="preserve">
<g>
</g>
<g>
</g>
<g>
</g>
<g>
</g>
<g>
</g>
<g>
</g>
<g>
</g>
<g>
</g>
<g>
</g>
<g>
</g>
<g>
</g>
<g>
</g>
<g>
</g>
<g>
</g>
<g>
	<g>
		<g>
			<g>
				<path d="M153.8,347.2l13.5-1.2c5-0.9,10,1.8,11.9,6.6c0.7,6-3.5,11.6-9.5,12.6l-5.2,1.4c-5.7,2.1-12-0.6-14.5-6.3l-0.6-2.4
					l-14.6,3.9l0.7,2.4c4.5,13.7,19.3,21.3,33.1,16.8l5.3-1.4c14.1-3.1,23.1-17,20.2-31.2c-3.8-12-15.8-19.5-28.3-17.7l-13.1,1.1
					c-5,0.9-10-1.8-11.9-6.6c-0.7-6,3.5-11.6,9.5-12.6l5.2-1.4c5.7-2.1,12,0.6,14.5,6.3l0.6,2.4l14.6-3.9l-0.7-2.4
					c-4.5-13.7-19.3-21.3-33.1-16.8l-5.3,1.4c-0.1,0-0.1,0-0.2,0c-14.3,3-23.4,17-20.4,31.2C129.3,341.6,141.3,349,153.8,347.2z"/>
			</g>
		</g>
		<g>
			<g>
				<rect x="163.9" y="372.8" transform="matrix(0.9656 -0.2601 0.2601 0.9656 -93.4171 57.7445)" width="15.1" height="17.9"/>
			</g>
		</g>
		<g>
			<g>
				<rect x="140.8" y="287.2" transform="matrix(0.9656 -0.2601 0.2601 0.9656 -71.9247 48.7908)" width="15.1" height="17.9"/>
			</g>
		</g>
	</g>
	<g>
		<g>
			<path d="M483.2,421.9c3.6-2,4.9-6.7,2.9-10.3l-96.9-173.6l80.6-181.7c0.5-1.1,0.7-2.2,0.7-3.4c-0.2-4.2-3.7-7.4-7.9-7.2L107.9,62
				c-2.8,0.1-5.4,1.9-6.5,4.5L19.2,251.7c-0.5,1.1-0.7,2.3-0.7,3.4c0.1,1.2,0.4,2.3,1,3.4l98.8,176.9c1.4,2.5,4.1,4,6.9,3.8
				l354.6-16.3C481,422.8,482.1,422.5,483.2,421.9z M129.2,423.9L34.5,254.3l78.8-177.5L451,61.3l-77.2,174c-1,2.2-0.9,4.7,0.3,6.8
				l92.8,166.2L129.2,423.9z"/>
		</g>
	</g>
	<g>
		<g>
			<path d="M457.7,458.9c1.4-1.8,1.8-4.1,1.3-6.3l-9.3-37.4l-14.9,3.7l7.2,28.4L79.8,463.9L33.6,254.4L60.4,41.5l362.1-16.6
				L418,53.8l15.2,2.3l5.8-38.1c0.3-2.3-0.5-4.5-2-6.2c-1.5-1.7-3.7-2.6-5.9-2.5L53.9,26.7c-3.7,0.1-6.8,2.9-7.3,6.6L18.9,253.8
				l0.1,1.3l0.1,1.3l47.8,217c0.8,3.6,4.1,6.1,7.8,5.9L451.8,462C454.1,461.9,456.3,460.8,457.7,458.9z"/>
		</g>
	</g>
	<g>
		<g>
			
				<rect x="124.5" y="238.7" transform="matrix(0.9989 -4.588347e-02 4.588347e-02 0.9989 -11.0751 9.957)" width="173.7" height="15.1"/>
		</g>
	</g>
	<g>
		<g>
			
				<rect x="325.4" y="232.2" transform="matrix(0.9989 -4.588347e-02 4.588347e-02 0.9989 -10.6266 16.4618)" width="55.7" height="15.1"/>
		</g>
	</g>
	<g>
		<g>
			
				<rect x="26.5" y="245.6" transform="matrix(0.9989 -4.588347e-02 4.588347e-02 0.9989 -11.552 3.0417)" width="68" height="15.1"/>
		</g>
	</g>
	<g>
	</g>
</g>
</svg>
