<?xml version="1.0" encoding="utf-8"?>
<!-- Generator: Adobe Illustrator 16.0.0, SVG Export Plug-In . SVG Version: 6.00 Build 0)  -->
<!DOCTYPE svg PUBLIC "-//W3C//DTD SVG 1.1//EN" "http://www.w3.org/Graphics/SVG/1.1/DTD/svg11.dtd">
<svg version="1.1" id="Layer_1" xmlns="http://www.w3.org/2000/svg" xmlns:xlink="http://www.w3.org/1999/xlink" x="0px" y="0px"
	 width="50px" height="50px" viewBox="0 0 50 50" enable-background="new 0 0 50 50" xml:space="preserve">
<g>
	<g>
		<g>
			<path fill="#FFFFFF" d="M17.395,0.417H6.102c-3.133,0-5.685,2.551-5.685,5.685v11.293c0,3.134,2.551,5.685,5.685,5.685h11.293
				c3.134,0,5.685-2.551,5.685-5.685V6.102C23.08,2.969,20.529,0.417,17.395,0.417z M19.238,17.395c0,1.017-0.826,1.843-1.843,1.843
				H6.102c-1.017,0-1.845-0.826-1.845-1.843V6.102c0-1.017,0.828-1.845,1.845-1.845h11.293c1.017,0,1.843,0.828,1.843,1.845V17.395z
				"/>
		</g>
	</g>
	<g>
		<g>
			<path fill="#FFFFFF" d="M43.821,0.417H32.681c-3.172,0-5.76,2.585-5.76,5.762v11.138c0,3.177,2.588,5.762,5.76,5.762h11.141
				c3.178,0,5.761-2.584,5.761-5.762V6.18C49.582,3.002,46.999,0.417,43.821,0.417z M45.74,17.318c0,1.061-0.859,1.92-1.919,1.92
				H32.681c-1.057,0-1.92-0.86-1.92-1.92V6.18c0-1.059,0.863-1.922,1.92-1.922h11.141c1.06,0,1.919,0.863,1.919,1.922V17.318z"/>
		</g>
	</g>
	<g>
		<g>
			<path fill="#FFFFFF" d="M17.395,26.92H6.102c-3.133,0-5.685,2.551-5.685,5.688v11.29c0,3.137,2.551,5.685,5.685,5.685h11.293
				c3.134,0,5.685-2.548,5.685-5.685v-11.29C23.08,29.471,20.529,26.92,17.395,26.92z M19.238,43.897
				c0,1.016-0.826,1.843-1.843,1.843H6.102c-1.017,0-1.845-0.827-1.845-1.843v-11.29c0-1.016,0.828-1.847,1.845-1.847h11.293
				c1.017,0,1.843,0.831,1.843,1.847V43.897z"/>
		</g>
	</g>
	<g>
		<g>
			<path fill="#FFFFFF" d="M43.821,26.92H32.681c-3.172,0-5.76,2.589-5.76,5.761v11.141c0,3.178,2.588,5.761,5.76,5.761h11.141
				c3.178,0,5.761-2.583,5.761-5.761V32.681C49.582,29.509,46.999,26.92,43.821,26.92z M45.74,43.821
				c0,1.06-0.859,1.919-1.919,1.919H32.681c-1.057,0-1.92-0.859-1.92-1.919V32.681c0-1.057,0.863-1.92,1.92-1.92h11.141
				c1.06,0,1.919,0.863,1.919,1.92V43.821z"/>
		</g>
	</g>
	<g>
	</g>
	<g>
	</g>
	<g>
	</g>
	<g>
	</g>
	<g>
	</g>
	<g>
	</g>
	<g>
	</g>
	<g>
	</g>
	<g>
	</g>
	<g>
	</g>
	<g>
	</g>
	<g>
	</g>
	<g>
	</g>
	<g>
	</g>
	<g>
	</g>
</g>
</svg>
