<?xml version="1.0" encoding="utf-8"?>
<!-- Generator: Adobe Illustrator 22.0.0, SVG Export Plug-In . SVG Version: 6.00 Build 0)  -->
<svg version="1.1" id="Layer_1" xmlns="http://www.w3.org/2000/svg" xmlns:xlink="http://www.w3.org/1999/xlink" x="0px" y="0px"
	 viewBox="0 0 394.3 500" style="enable-background:new 0 0 394.3 500;" xml:space="preserve">
<path d="M360.4,117.9l-48.9-23.2l2.5-5.3c11.1-23.3,1.1-51.4-22.2-62.5l-42.1-20c-12.5-5.9-26.6-6.1-39.4-0.4
	C200,11.2,191.8,19.7,186.9,30l-2.1,4.5l-48.9-23.2c-25.6-12.1-56.3-1.2-68.4,24.4L55.1,61.8c-0.9,1.9-1.5,3.9-1.7,6
	c-0.6,7.6,3.5,14.4,9.9,17.4l129.5,61.5l-171.2,0c-2.2,0-4.5,0.3-6.6,1.2c-7.5,3.1-11.6,10.3-11,17.7L27,440.9
	c2.7,32,29.9,57.1,62.1,57.1h128.3c32.2,0,59.4-25.1,62.1-57.1l20.3-243.3L349,221c2.4,1.1,5,1.7,7.5,1.7c6.5,0,12.8-3.7,15.8-10
	l12.5-26.3C396.9,160.8,386,130.1,360.4,117.9z M218.9,43.7c1.4-2.9,3.8-5.1,6.8-6.2c3-1.1,6.3-0.9,9.2,0.5L277,58
	c6,2.8,8.5,10,5.7,16l-2.5,5.3L216.3,49L218.9,43.7z M244.7,437.9c-1.2,14.1-13.2,25.1-27.3,25.1H89.1c-14.1,0-26.1-11-27.3-25.1
	L40.4,181.7H266L244.7,437.9z M353.5,171.1l-5,10.6L93.9,60.8l5-10.6c3.9-8.2,13.7-11.7,21.9-7.8l224.8,106.8
	C353.9,153,357.4,162.9,353.5,171.1z"/>
<g>
</g>
<g>
</g>
<g>
</g>
<g>
</g>
<g>
</g>
<g>
</g>
<g>
</g>
<g>
</g>
<g>
</g>
<g>
</g>
<g>
</g>
<g>
</g>
<g>
</g>
<g>
</g>
<g>
</g>
</svg>
