<?xml version="1.0" encoding="utf-8"?>
<!-- Generator: Adobe Illustrator 22.0.0, SVG Export Plug-In . SVG Version: 6.00 Build 0)  -->
<svg version="1.1" id="Layer_1" xmlns="http://www.w3.org/2000/svg" xmlns:xlink="http://www.w3.org/1999/xlink" x="0px" y="0px"
	 viewBox="0 0 500 312.4" style="enable-background:new 0 0 500 312.4;" xml:space="preserve">
<g>
	<g>
		<g>
			<path d="M488,144.2c-5.1-6.1-12.1-10.1-20.1-11.6l-3.7-51c3.7,0,6.8-2.7,7.5-6.4l1.4-8.2c1.5-8.8-0.6-17.5-5.9-23.8
				c-5.3-6.3-13.1-9.8-21.9-9.8h-56.5l2.8-15.6c0.8-4.4-0.4-8.9-3.1-12.1c-2.7-3.2-6.8-5.1-11.2-5.1H98.9c-8.2,0-15.8,6.4-17.3,14.6
				L57,154.8c-0.7,4.2,2,8.2,6.2,8.9c0.4,0.1,0.9,0.1,1.3,0.1c3.7,0,6.9-2.6,7.6-6.4L96.8,17.8c0.2-0.9,1.4-1.8,2.1-1.8h277.3
				l-24.5,138.8c-0.7,4.2,2.1,8.2,6.3,8.9c4.2,0.7,8.2-2.1,8.9-6.2l1.8-10.1h92.1l0,0l0,0c6.4,0,11.9,2.4,15.5,6.7
				c2.5,3,3.9,6.7,4.3,10.8h-25.6c-3.7,0-6.9,2.7-7.6,6.4l-2.9,16.4c-1.1,6.6,0.5,13.2,4.5,18c4,4.8,10,7.5,16.6,7.5h7.2l-6,33.9
				h-20.3c-1.3-6.8-4.3-13-8.7-18.3c-7.9-9.4-19.5-14.5-32.6-14.5c-21.1,0-41.5,13.8-51,32.9h-3.1l10-56.7c0.7-4.2-2-8.2-6.2-8.9
				c-4.2-0.8-8.2,2-8.9,6.2L335.4,247H192.9c-1.3-6.8-4.3-13-8.7-18.3c-7.9-9.4-19.5-14.5-32.6-14.5c-21.1,0-41.5,13.8-51,32.9H56.4
				l3.1-17.4h34.6c4.2,0,7.7-3.5,7.7-7.7c0-4.3-3.4-7.7-7.7-7.7H11.9c-4.3,0-7.7,3.5-7.7,7.7c0,4.2,3.5,7.7,7.7,7.7h31.9l-2.8,15.6
				c-0.8,4.4,0.4,8.9,3.1,12.1c2.7,3.3,6.8,5.1,11.2,5.1h40.1c-2.1,13,1.1,25.3,8.9,34.7c7.9,9.4,19.5,14.6,32.6,14.6
				c26.2,0,51.3-21.3,55.9-47.4c0.1-0.6,0.2-1.2,0.3-1.8h155.9c-2.1,13,1,25.3,8.9,34.7c7.9,9.4,19.5,14.6,32.6,14.6
				c26.2,0,51.3-21.3,55.9-47.4c0.1-0.6,0.2-1.2,0.3-1.8h26.5c3.7,0,6.9-2.7,7.6-6.4l14.5-82.1C497.3,162.7,494.7,152.2,488,144.2z
				 M371.3,132l8.9-50.3h68.5l3.7,50.3H371.3z M457.9,64.4l-0.3,1.9h-74.7l3.1-17.4h59.2c4.2,0,7.8,1.5,10.1,4.3
				C457.8,56.1,458.7,60.1,457.9,64.4z M177.8,261.6c-3.4,19.1-21.6,34.7-40.7,34.7c-8.5,0-15.9-3.2-20.8-9c-5-6-7-14.2-5.4-23
				c3.4-19.1,21.6-34.7,40.7-34.7c8.5,0,15.9,3.2,20.8,9.1C177.4,244.6,179.3,252.8,177.8,261.6z M431.4,261.6
				c-3.4,19.1-21.6,34.7-40.7,34.7c-8.5,0-15.9-3.2-20.8-9c-5-6-7-14.2-5.4-23c3.4-19.1,21.6-34.7,40.7-34.7
				c8.6,0,15.9,3.2,20.8,9.1C431.1,244.6,433,252.8,431.4,261.6z M475.5,197.7h-10l0,0c-2,0-3.7-0.7-4.8-2c-1.1-1.3-1.5-3.3-1.1-5.4
				l1.8-10.1h17.2L475.5,197.7z"/>
		</g>
	</g>
	<g>
		<g>
			<path d="M157,252.1c-2.7-3.2-6.8-5.1-11.2-5.1c-8.2,0-15.8,6.4-17.2,14.6c-0.8,4.4,0.3,8.9,3.1,12.1c2.7,3.2,6.8,5.1,11.3,5.1
				c8.2,0,15.8-6.4,17.2-14.6C160.9,259.8,159.7,255.4,157,252.1z"/>
		</g>
	</g>
	<g>
		<g>
			<path d="M410.6,252.1c-2.7-3.2-6.8-5.1-11.3-5.1c-8.2,0-15.8,6.4-17.2,14.6c-0.8,4.4,0.3,8.8,3.1,12.1c2.7,3.2,6.8,5.1,11.2,5.1
				c8.2,0,15.8-6.4,17.3-14.6C414.5,259.8,413.4,255.4,410.6,252.1z"/>
		</g>
	</g>
	<g>
		<g>
			<path d="M314.8,214.1h-97.6c-4.2,0-7.7,3.5-7.7,7.7c0,4.2,3.5,7.7,7.7,7.7h97.6c4.3,0,7.7-3.5,7.7-7.7
				C322.5,217.6,319.1,214.1,314.8,214.1z"/>
		</g>
	</g>
	<g>
		<g>
			<path d="M176.2,181.3H34.2c-4.3,0-7.7,3.4-7.7,7.7c0,4.2,3.4,7.7,7.7,7.7h142.1c4.2,0,7.7-3.5,7.7-7.7
				C183.9,184.7,180.4,181.3,176.2,181.3z"/>
		</g>
	</g>
	<g>
		<g>
			<path d="M323.2,150.3l-28.5-24.6c-3.2-2.8-8.1-2.4-10.9,0.8c-2.8,3.2-2.4,8.1,0.8,10.9l12.9,11.1H102.2c-4.2,0-7.7,3.5-7.7,7.7
				c0,4.3,3.4,7.7,7.7,7.7h190.4l-15.9,10.5c-3.5,2.4-4.5,7.1-2.1,10.7c1.5,2.2,3.9,3.4,6.4,3.4c1.5,0,2.9-0.4,4.3-1.3l37.2-24.6
				c2-1.4,3.3-3.5,3.4-5.9C326,154.2,325,151.9,323.2,150.3z"/>
		</g>
	</g>
</g>
</svg>
