<?xml version="1.0" encoding="utf-8"?>
<!-- Generator: Adobe Illustrator 22.0.0, SVG Export Plug-In . SVG Version: 6.00 Build 0)  -->
<svg version="1.1" id="Layer_1" xmlns="http://www.w3.org/2000/svg" xmlns:xlink="http://www.w3.org/1999/xlink" x="0px" y="0px"
	 viewBox="0 0 500 500" style="enable-background:new 0 0 500 500;" xml:space="preserve">
<g>
	<path d="M347.6,24.8c-73.6,0-133.4,59.8-133.4,133.4c0,25.1,7.1,48.5,19.2,68.5L30.5,429.6c-6.1,6.1-6.1,16.1,0,22.2
		c3.1,3.1,7.1,4.6,11.1,4.6s8-1.5,11.1-4.6l28.1-28.1l51.7,51.7c3.1,3.1,7.1,4.6,11.1,4.6s8-1.5,11.1-4.6c6.1-6.1,6.1-16.1,0-22.2
		L103,401.5l17-17l36,36c3.1,3.1,7.1,4.6,11.1,4.6c4,0,8-1.5,11.1-4.6c6.1-6.1,6.1-16.1,0-22.2l-36-36l17-17l51.7,51.7
		c3.1,3.1,7.1,4.6,11.1,4.6c4,0,8-1.5,11.1-4.6c6.1-6.1,6.1-16.1,0-22.2L181.5,323l71.2-71.2c24.2,24.6,57.8,39.8,94.9,39.8
		c73.6,0,133.4-59.8,133.4-133.4S421.2,24.8,347.6,24.8z M347.6,260.2c-56.2,0-102-45.8-102-102s45.8-102,102-102s102,45.8,102,102
		S403.8,260.2,347.6,260.2z"/>
	<g>
	</g>
	<g>
	</g>
	<g>
	</g>
	<g>
	</g>
	<g>
	</g>
	<g>
	</g>
	<g>
	</g>
	<g>
	</g>
	<g>
	</g>
	<g>
	</g>
	<g>
	</g>
	<g>
	</g>
	<g>
	</g>
	<g>
	</g>
	<g>
	</g>
</g>
</svg>
