<?xml version="1.0" encoding="utf-8"?>
<!-- Generator: Adobe Illustrator 22.0.0, SVG Export Plug-In . SVG Version: 6.00 Build 0)  -->
<svg version="1.1" id="Layer_1" xmlns="http://www.w3.org/2000/svg" xmlns:xlink="http://www.w3.org/1999/xlink" x="0px" y="0px"
	 viewBox="0 0 1000 1000" style="enable-background:new 0 0 1000 1000;" xml:space="preserve">
<style type="text/css">
	.st0{fill:#FFFFFF;stroke:#FFFFFF;stroke-miterlimit:10;}
</style>
<g>
	<path class="st0" d="M968.1,388.8c-11.5-47.2-51.4-85.6-99.1-95.6c-3.9-0.8-7.9-0.7-11.8-1.2c-35.5-153.9-170.8-264-331-264h-52.4
		c-160.1,0-295.4,110.1-331,264c-25.1,3.2-49.1,12.8-68.6,29.4c-29.4,25-46.2,61.4-46.2,99.9c0,41,19.8,79.7,52.4,104.4v236.5
		c0,38.7,21.2,72.1,52.4,90.3v40.8c0,43.4,35.3,78.7,78.7,78.7s78.7-35.3,78.7-78.7v-26.2h419.6v26.2c0,43.4,35.3,78.7,78.7,78.7
		c43.4,0,78.7-35.3,78.7-78.7v-40.8c31.2-18.2,52.4-51.6,52.4-90.3V525.7C961.6,494.3,980.9,441.1,968.1,388.8z M473.8,80.4h52.4
		c132.8,0,245.2,89.5,278,215.6c-16.5,4.8-32.3,12.3-45.9,23.4c-30.8,25-48.5,62.1-48.5,101.8v131.1H290.2V426.9
		c0-61.3-39.8-114.7-94.4-131C228.6,169.9,341,80.4,473.8,80.4z M762.2,631.1c0,14.5-11.8,26.2-26.2,26.2H264
		c-14.5,0-26.2-11.8-26.2-26.2c0-14.5,11.8-26.2,26.2-26.2h472C750.5,604.9,762.2,616.6,762.2,631.1z M237.8,893.3
		c0,14.5-11.8,26.2-26.2,26.2c-14.5,0-26.2-11.8-26.2-26.2v-26.2h52.4V893.3z M814.7,893.3c0,14.5-11.8,26.2-26.2,26.2
		c-14.5,0-26.2-11.8-26.2-26.2v-26.2h52.4L814.7,893.3L814.7,893.3z M880.1,489c-8.1,4.7-13,13.3-13,22.7v250.5
		c0,28.9-23.5,52.4-52.4,52.4H185.3c-28.9,0-52.4-23.5-52.4-52.4V511.7c0-9.3-5-18-13-22.7c-24.7-14.4-39.4-39.7-39.4-67.7
		c0-23.1,10.1-45,27.7-59.9c17.9-15.2,40.8-21.5,64.3-17.6c37.2,6,65.3,41.8,65.3,83.2v130.3c-30.5,10.9-52.4,39.7-52.4,73.8
		c0,43.4,35.3,78.7,78.7,78.7h472c43.4,0,78.7-35.3,78.7-78.7c0-34.1-22-63-52.4-73.8V421.3c0-23.8,10.6-46.1,29.1-61.1
		c18.8-15.2,42.5-20.8,66.9-15.7c28.4,5.9,52,28.8,58.9,56.7C925.7,436.5,911.2,470.9,880.1,489z"/>
</g>
</svg>
