<?xml version="1.0" encoding="utf-8"?>
<!-- Generator: Adobe Illustrator 16.0.0, SVG Export Plug-In . SVG Version: 6.00 Build 0)  -->
<!DOCTYPE svg PUBLIC "-//W3C//DTD SVG 1.1//EN" "http://www.w3.org/Graphics/SVG/1.1/DTD/svg11.dtd">
<svg version="1.1" id="Layer_1" xmlns="http://www.w3.org/2000/svg" xmlns:xlink="http://www.w3.org/1999/xlink" x="0px" y="0px"
	 width="50px" height="50px" viewBox="0 0 50 50" enable-background="new 0 0 50 50" xml:space="preserve">
<g>
	<g>
		<g>
			<path fill="#FFFFFF" d="M46.837,14.458h-9.871c0.71-0.484,1.316-0.964,1.742-1.394c2.513-2.53,2.513-6.648,0-9.177
				c-2.445-2.458-6.705-2.461-9.15,0c-1.352,1.356-4.941,6.881-4.445,10.571h-0.226c0.494-3.69-3.094-9.215-4.445-10.571
				c-2.445-2.461-6.707-2.458-9.149,0c-2.515,2.529-2.515,6.647-0.002,9.177c0.428,0.43,1.035,0.91,1.744,1.394H3.164
				c-1.718,0-3.119,1.401-3.119,3.119v7.798c0,0.862,0.698,1.561,1.559,1.561h1.56v18.716c0,1.719,1.401,3.121,3.12,3.121h37.433
				c1.718,0,3.12-1.402,3.12-3.121V26.936h1.558c0.86,0,1.561-0.698,1.561-1.561v-7.798C49.955,15.859,48.556,14.458,46.837,14.458z
				 M13.505,6.085C14.138,5.45,14.977,5.1,15.87,5.1c0.889,0,1.728,0.35,2.361,0.985c2.103,2.115,4.193,7.519,3.466,8.27
				c0,0-0.131,0.104-0.578,0.104c-2.155,0-6.27-2.24-7.614-3.594C12.198,9.547,12.198,7.401,13.505,6.085z M23.439,45.651H6.284
				V26.936h17.156V45.651z M23.439,23.816H3.164v-6.239h17.955h2.32V23.816z M31.77,6.085c1.266-1.27,3.461-1.267,4.727,0
				c1.306,1.316,1.306,3.462,0,4.779c-1.346,1.354-5.461,3.594-7.616,3.594c-0.445,0-0.577-0.101-0.579-0.104
				C27.576,13.604,29.668,8.2,31.77,6.085z M43.717,45.651H26.561V26.936h17.156V45.651z M46.837,23.816H26.561v-6.239h2.319h17.957
				V23.816z"/>
		</g>
	</g>
	<g>
	</g>
	<g>
	</g>
	<g>
	</g>
	<g>
	</g>
	<g>
	</g>
	<g>
	</g>
	<g>
	</g>
	<g>
	</g>
	<g>
	</g>
	<g>
	</g>
	<g>
	</g>
	<g>
	</g>
	<g>
	</g>
	<g>
	</g>
	<g>
	</g>
</g>
</svg>
