<?xml version="1.0" encoding="utf-8"?>
<!-- Generator: Adobe Illustrator 16.0.0, SVG Export Plug-In . SVG Version: 6.00 Build 0)  -->
<!DOCTYPE svg PUBLIC "-//W3C//DTD SVG 1.1//EN" "http://www.w3.org/Graphics/SVG/1.1/DTD/svg11.dtd">
<svg version="1.1" id="Layer_1" xmlns="http://www.w3.org/2000/svg" xmlns:xlink="http://www.w3.org/1999/xlink" x="0px" y="0px"
	 width="50px" height="50px" viewBox="0 0 50 50" enable-background="new 0 0 50 50" xml:space="preserve">
<g>
	<g>
		<g id="banknote">
			<path fill="#FFFFFF" d="M49.119,17.078L34.045,2.008c-0.744-0.748-1.829-1.047-2.857-0.794c-0.537,0.132-1.022,0.411-1.406,0.794
				c-0.342,0.341-0.596,0.765-0.745,1.238c-0.682,2.213-1.864,4.138-3.611,5.884c-2.333,2.332-5.37,4.099-8.585,5.964
				c-3.411,1.979-6.937,4.026-9.827,6.914C4.56,24.467,2.889,27.2,1.909,30.375c-0.33,1.07-0.042,2.23,0.748,3.022L17.726,48.47
				c0.747,0.744,1.831,1.044,2.857,0.792c0.542-0.135,1.025-0.413,1.408-0.792c0.342-0.344,0.599-0.769,0.747-1.244
				c0.685-2.214,1.865-4.137,3.613-5.883c2.33-2.331,5.364-4.096,8.587-5.962c3.404-1.979,6.935-4.029,9.82-6.915
				c2.454-2.456,4.125-5.192,5.109-8.367C50.195,19.028,49.902,17.866,49.119,17.078z M19.858,46.335
				C14.868,41.346,9.78,36.255,4.788,31.263c4.284-13.865,22.848-13.258,27.13-27.125c4.989,4.991,10.075,10.08,15.069,15.071
				C42.703,33.073,24.141,32.469,19.858,46.335z"/>
			<path fill="#FFFFFF" d="M31.25,23.58c-0.484-0.412-0.979-0.691-1.479-0.831c-0.495-0.138-0.984-0.193-1.489-0.159
				c-0.493,0.037-0.999,0.151-1.507,0.345c-0.506,0.198-1.015,0.412-1.526,0.66c-0.811-0.929-1.619-1.848-2.428-2.703
				c0.364-0.329,0.718-0.496,1.058-0.508c0.342-0.017,0.671,0.021,0.983,0.099c0.318,0.081,0.608,0.147,0.877,0.201
				c0.27,0.053,0.505-0.006,0.711-0.179c0.219-0.188,0.34-0.433,0.355-0.726c0.018-0.297-0.096-0.586-0.344-0.869
				c-0.318-0.364-0.7-0.586-1.16-0.667c-0.454-0.081-0.918-0.074-1.402,0.031c-0.477,0.109-0.929,0.288-1.36,0.542
				c-0.429,0.252-0.773,0.513-1.029,0.765c-0.1-0.092-0.197-0.185-0.295-0.277c-0.108-0.099-0.244-0.152-0.406-0.15
				c-0.166,0-0.301,0.071-0.412,0.2c-0.108,0.126-0.158,0.275-0.139,0.429c0.015,0.161,0.081,0.286,0.192,0.38
				c0.098,0.083,0.195,0.164,0.293,0.251c-0.385,0.465-0.702,0.979-0.953,1.521c-0.253,0.545-0.404,1.083-0.459,1.606
				c-0.059,0.528-0.004,1.01,0.158,1.458c0.161,0.452,0.46,0.832,0.896,1.194c0.709,0.592,1.544,0.843,2.513,0.783
				c0.967-0.058,2.007-0.346,3.127-0.947c0.89,1.029,1.78,2.049,2.67,2.997c-0.374,0.316-0.704,0.502-0.995,0.56
				c-0.293,0.06-0.551,0.055-0.785-0.017c-0.235-0.072-0.454-0.178-0.654-0.313c-0.2-0.142-0.398-0.257-0.595-0.355
				c-0.195-0.094-0.395-0.148-0.601-0.153c-0.204-0.003-0.424,0.098-0.664,0.305c-0.248,0.214-0.371,0.463-0.371,0.747
				c0,0.28,0.13,0.563,0.383,0.852c0.256,0.289,0.588,0.531,0.992,0.724c0.402,0.191,0.857,0.312,1.358,0.346
				c0.501,0.033,1.029-0.041,1.587-0.25c0.558-0.202,1.109-0.569,1.657-1.116c0.259,0.257,0.523,0.499,0.787,0.734
				c0.11,0.096,0.25,0.144,0.413,0.135c0.158-0.008,0.298-0.082,0.403-0.214c0.115-0.135,0.158-0.286,0.145-0.442
				c-0.015-0.158-0.082-0.278-0.188-0.367c-0.269-0.214-0.533-0.435-0.797-0.67c0.451-0.555,0.816-1.138,1.08-1.714
				c0.269-0.581,0.428-1.14,0.48-1.658c0.053-0.522-0.01-0.991-0.178-1.418C31.985,24.307,31.683,23.936,31.25,23.58z
				 M22.829,24.601c-0.426,0.017-0.798-0.124-1.124-0.438c-0.138-0.133-0.234-0.294-0.294-0.486
				c-0.06-0.191-0.083-0.401-0.058-0.629c0.021-0.226,0.087-0.462,0.205-0.701c0.112-0.239,0.277-0.477,0.489-0.707
				c0.765,0.76,1.526,1.593,2.291,2.455C23.759,24.413,23.255,24.583,22.829,24.601z M29.939,27.618
				c-0.14,0.25-0.293,0.473-0.476,0.668c-0.845-0.853-1.687-1.79-2.53-2.752c0.215-0.097,0.44-0.198,0.686-0.3
				c0.244-0.103,0.49-0.17,0.73-0.212c0.25-0.037,0.5-0.026,0.744,0.031c0.245,0.063,0.476,0.194,0.692,0.402
				c0.216,0.215,0.346,0.433,0.403,0.671c0.058,0.242,0.063,0.486,0.019,0.737C30.165,27.114,30.079,27.363,29.939,27.618z"/>
			<path fill="#FFFFFF" d="M23.954,34.548H23.95c-0.941,0.726-1.861,1.486-2.712,2.344c-0.819,0.818-1.558,1.678-2.202,2.557
				l-1.031,1.412l0.003,0.002c-0.188,0.293-0.157,0.689,0.1,0.944c0.293,0.293,0.774,0.293,1.07,0
				c0.045-0.046,0.082-0.097,0.111-0.149l0.963-1.32c0.597-0.816,1.287-1.618,2.051-2.382c0.845-0.846,1.629-1.498,2.583-2.224
				l-0.003-0.002c0.027-0.021,0.053-0.036,0.077-0.061c0.295-0.293,0.295-0.775,0-1.07C24.687,34.322,24.25,34.311,23.954,34.548z"
				/>
			<path fill="#FFFFFF" d="M29.469,12.752c-0.787,0.788-1.644,1.498-2.527,2.174c-0.061,0.034-0.123,0.073-0.176,0.129
				c-0.297,0.297-0.297,0.78,0,1.079c0.287,0.291,0.752,0.295,1.055,0.021l0.005,0.003c0.942-0.724,1.859-1.49,2.71-2.341
				c0.816-0.819,1.556-1.679,2.199-2.557l1.032-1.415V9.843c0.255-0.3,0.245-0.748-0.038-1.031c-0.298-0.296-0.778-0.296-1.076,0
				c-0.058,0.055-0.096,0.12-0.134,0.185l-0.999,1.372C30.919,11.188,30.232,11.988,29.469,12.752z"/>
		</g>
	</g>
	<g>
	</g>
	<g>
	</g>
	<g>
	</g>
	<g>
	</g>
	<g>
	</g>
	<g>
	</g>
	<g>
	</g>
	<g>
	</g>
	<g>
	</g>
	<g>
	</g>
	<g>
	</g>
	<g>
	</g>
	<g>
	</g>
	<g>
	</g>
	<g>
	</g>
</g>
</svg>
