<?xml version="1.0" encoding="utf-8"?>
<!-- Generator: Adobe Illustrator 16.0.0, SVG Export Plug-In . SVG Version: 6.00 Build 0)  -->
<!DOCTYPE svg PUBLIC "-//W3C//DTD SVG 1.1//EN" "http://www.w3.org/Graphics/SVG/1.1/DTD/svg11.dtd">
<svg version="1.1" id="Layer_1" xmlns="http://www.w3.org/2000/svg" xmlns:xlink="http://www.w3.org/1999/xlink" x="0px" y="0px"
	 width="50px" height="50px" viewBox="0 0 50 50" enable-background="new 0 0 50 50" xml:space="preserve">
<g>
	<g>
		<g>
			<path fill="#FFFFFF" d="M47.595,17.946l-0.085-0.283c0,0-0.037-0.084-0.037-0.124L42.352,3.306
				c-0.242-0.65-0.857-1.097-1.587-1.097H7.907c-0.691,0-1.342,0.447-1.585,1.097L1.239,17.459c-0.041,0.08-0.041,0.162-0.083,0.243
				L0.995,18.19c-0.043,0.123-0.083,0.245-0.083,0.406c-0.164,0.61-0.244,1.141-0.244,1.708c0,3.092,1.952,5.734,4.718,6.71v20.822
				c0,0.935,0.732,1.666,1.667,1.666h35.254c0.941,0,1.666-0.731,1.666-1.666V26.731c2.403-1.181,4.068-3.62,4.068-6.428
				c0-0.487-0.077-1.014-0.204-1.544C47.799,18.435,47.716,18.19,47.595,17.946z M40.604,46.17H8.72V27.382
				c0.082,0,0.203-0.044,0.285-0.044c1.748-0.281,3.253-1.177,4.351-2.479c1.302,1.586,3.294,2.562,5.491,2.562
				c2.194,0,4.188-1.016,5.488-2.562c1.302,1.586,3.295,2.562,5.491,2.562c2.192,0,4.185-1.016,5.491-2.562
				c0.929,1.139,2.197,1.952,3.658,2.318c0.038,0,0.083,0.038,0.122,0.038c0.16,0.039,0.327,0.084,0.532,0.122
				c0.076,0,0.198,0.044,0.282,0.044c0.121,0,0.281,0.039,0.403,0.039c0.082,0,0.205,0.039,0.288,0.039V46.17z M41.904,23.965
				C41.86,23.965,41.86,23.965,41.904,23.965c-0.205,0.04-0.364,0.081-0.532,0.122c-0.16,0.04-0.364,0.04-0.524,0.04
				c-0.244,0-0.487-0.04-0.731-0.081c-0.204-0.041-0.41-0.122-0.57-0.162c-0.045,0-0.045,0-0.083-0.042
				c-1.301-0.528-2.274-1.788-2.402-3.252c0-0.04,0-0.083,0-0.083c0-0.08,0-0.12,0-0.204c0-0.934-0.731-1.667-1.666-1.667
				c-0.936,0-1.666,0.734-1.666,1.667c0,0.083,0,0.164-0.038,0.246v0.04c-0.123,1.504-1.097,2.725-2.397,3.252
				c-0.044,0-0.044,0-0.089,0.042c-0.199,0.081-0.405,0.121-0.609,0.162c-0.236,0.041-0.486,0.081-0.724,0.081
				c-0.25,0-0.493-0.04-0.737-0.081c-0.205-0.041-0.404-0.122-0.569-0.162c-0.04,0-0.04,0-0.083-0.042
				c-1.299-0.528-2.275-1.788-2.397-3.252c0-0.04,0-0.04,0-0.083c0-0.08-0.042-0.12-0.042-0.204c0-0.934-0.73-1.667-1.666-1.667
				c-0.935,0-1.667,0.734-1.667,1.667c0,0.083,0,0.164-0.04,0.246v0.04c-0.123,1.504-1.099,2.725-2.399,3.252
				c-0.041,0-0.041,0-0.082,0.042c-0.204,0.081-0.407,0.121-0.609,0.162c-0.245,0.041-0.488,0.081-0.732,0.081
				c-0.245,0-0.489-0.04-0.734-0.081c-0.203-0.041-0.406-0.122-0.61-0.162c-0.041,0-0.041,0-0.08-0.042
				c-1.301-0.528-2.278-1.788-2.398-3.252c0-0.04,0-0.083,0-0.083c0-0.08,0-0.12,0-0.204c0-0.934-0.734-1.667-1.669-1.667
				s-1.666,0.734-1.666,1.667c0,0.083,0,0.164-0.041,0.246v0.04c-0.123,1.504-1.099,2.725-2.4,3.252c-0.041,0-0.041,0-0.081,0.042
				c-0.204,0.081-0.366,0.121-0.569,0.162c-0.244,0.041-0.489,0.081-0.732,0.081c-0.121,0-0.283-0.04-0.406-0.04
				c-0.041,0-0.081,0-0.163-0.041c-0.042,0-0.081,0-0.122,0c-1.789-0.326-3.172-1.872-3.172-3.783c0-0.323,0.041-0.651,0.162-1.057
				c0-0.04,0.041-0.12,0.041-0.163l4.88-13.54h30.499l4.76,13.216c0,0,0.039,0.081,0.039,0.121l0.083,0.247
				c0,0.04,0.038,0.12,0.038,0.161c0.123,0.406,0.167,0.733,0.167,1.057C44.672,22.012,43.487,23.477,41.904,23.965z"/>
		</g>
	</g>
</g>
</svg>
