<?xml version="1.0" encoding="utf-8"?>
<!-- Generator: Adobe Illustrator 22.0.0, SVG Export Plug-In . SVG Version: 6.00 Build 0)  -->
<svg version="1.1" id="Layer_1" xmlns="http://www.w3.org/2000/svg" xmlns:xlink="http://www.w3.org/1999/xlink" x="0px" y="0px"
	 viewBox="0 0 1000 1000" style="enable-background:new 0 0 1000 1000;" xml:space="preserve">
<style type="text/css">
	.st0{fill:#FFFFFF;stroke:#FFFFFF;stroke-miterlimit:10;}
</style>
<path class="st0" d="M359.8,33.5H147.6c-58.9,0-106.8,48.4-106.8,107.8v214.2c0,59.4,47.9,107.8,106.8,107.8h212.2
	c58.9,0,106.8-48.4,106.8-107.8V141.3C466.6,81.9,418.7,33.5,359.8,33.5z M394.4,355.5c0,19.3-15.5,35-34.6,35H147.6
	c-19.1,0-34.7-15.7-34.7-35V141.3c0-19.3,15.5-35,34.7-35h212.2c19.1,0,34.6,15.7,34.6,35V355.5L394.4,355.5z M856.3,33.5H646.9
	c-59.5,0-108.2,49-108.2,109.3V354c0,60.3,48.7,109.3,108.2,109.3h209.4c59.6,0,108.2-49,108.2-109.3V142.8
	C964.5,82.5,916,33.5,856.3,33.5z M892.3,354c0,20.1-16.2,36.4-36,36.4H646.9c-19.9,0-36-16.3-36-36.4V142.8
	c0-20.1,16.2-36.4,36-36.4h209.4c19.8,0,36,16.4,36,36.4L892.3,354L892.3,354z M359.8,536.2H147.6c-58.9,0-106.8,48.4-106.8,107.8
	v214.2c0,59.5,47.9,107.8,106.8,107.8h212.2c58.9,0,106.8-48.4,106.8-107.8V644C466.6,584.5,418.7,536.2,359.8,536.2z M394.4,858.2
	c0,19.3-15.5,34.9-34.6,34.9H147.6c-19.1,0-34.7-15.7-34.7-34.9V644c0-19.2,15.5-35,34.7-35h212.2c19.1,0,34.6,15.8,34.6,35V858.2
	L394.4,858.2z M856.3,536.2H646.9c-59.5,0-108.2,49-108.2,109.2v211.4c0,60.2,48.7,109.2,108.2,109.2h209.4
	c59.6,0,108.2-49,108.2-109.2V645.4C964.5,585.2,916,536.2,856.3,536.2z M892.3,856.8c0,20.1-16.2,36.3-36,36.3H646.9
	c-19.9,0-36-16.3-36-36.3V645.4c0-20,16.2-36.4,36-36.4h209.4c19.8,0,36,16.4,36,36.4L892.3,856.8L892.3,856.8z M224.3,157.1
	c-0.8-0.8-1.9-1.3-3.1-1.3c-1.1,0-2.3,0.5-3.1,1.3s-1.3,2-1.3,3.1c0,1.2,0.5,2.3,1.3,3.1s2,1.3,3.1,1.3c1.2,0,2.3-0.5,3.1-1.3
	s1.3-1.9,1.3-3.1S225.1,157.9,224.3,157.1z M366.6,155.8H239.9c-2.4,0-4.4,2-4.4,4.4s2,4.4,4.4,4.4h122.4v36l-80.1,80.1
	c-1.7,1.7-1.7,4.5,0,6.2c0.9,0.9,2,1.3,3.1,1.3s2.2-0.4,3.1-1.3l73.9-73.9v93.9H155V164.6h47c2.4,0,4.4-2,4.4-4.4s-2-4.4-4.4-4.4
	h-51.4c-2.4,0-4.4,2-4.4,4.4v151c0,2.4,1.9,4.4,4.4,4.4h75.5v14.9h-25.5c-2.4,0-4.4,2-4.4,4.4v13.2h-25c-2.4,0-4.4,2-4.4,4.4
	s2,4.4,4.4,4.4h158.9c2.4,0,4.4-2,4.4-4.4s-1.9-4.4-4.4-4.4H321v-13.2c0-2.4-2-4.4-4.4-4.4h-25.5v-14.9h75.5c2.4,0,4.4-2,4.4-4.4
	v-151C371,157.8,369.1,155.8,366.6,155.8z M234.9,315.6h47.4v14.9h-47.4V315.6z M312.2,339.3v8.8H205.1v-8.8h25.5h56.3H312.2z
	 M224.1,194.4c-1.7-1.7-4.5-1.7-6.2,0L179,233.3c-1.7,1.7-1.7,4.5,0,6.2c0.8,0.9,2,1.3,3.1,1.3s2.2-0.4,3.1-1.3l38.9-38.9
	C225.8,198.9,225.8,196.1,224.1,194.4z M172.8,245.7c-0.8-0.8-2-1.3-3.1-1.3c-1.2,0-2.3,0.4-3.1,1.3c-0.8,0.8-1.3,1.9-1.3,3.1
	c0,1.2,0.5,2.3,1.3,3.1s1.9,1.3,3.1,1.3c1.1,0,2.3-0.5,3.1-1.3s1.3-1.9,1.3-3.1C174.1,247.6,173.7,246.5,172.8,245.7z M349.1,349.4
	c-0.8-0.8-2-1.3-3.1-1.3s-2.3,0.5-3.1,1.3c-0.8,0.8-1.3,1.9-1.3,3.1c0,1.1,0.5,2.3,1.3,3.1c0.8,0.8,1.9,1.3,3.1,1.3
	c1.1,0,2.3-0.5,3.1-1.3c0.8-0.8,1.2-2,1.2-3.1C350.3,351.3,349.8,350.2,349.1,349.4z M249.7,215.1h-24.6c-2.4,0-4.4,2-4.4,4.4
	s2,4.4,4.4,4.4h7.9v32.5c0,2.4,2,4.4,4.4,4.4s4.4-2,4.4-4.4v-32.5h7.9c2.4,0,4.4-2,4.4-4.4C254.1,217,252.1,215.1,249.7,215.1z
	 M293.5,215.3c-2.3-0.8-4.8,0.5-5.6,2.8l-8.2,24.4l-8.1-24.4c-0.7-2.3-3.2-3.5-5.5-2.8c-2.3,0.8-3.5,3.2-2.8,5.5l12.3,36.9
	c0.6,1.8,2.3,3,4.2,3c1.9,0,3.6-1.2,4.2-3l12.3-36.9C297.1,218.5,295.8,216.1,293.5,215.3z M786.5,269.2v-32
	c0-5.8-5.1-10.6-11.5-10.6H667.1c-6.3,0-11.5,4.7-11.5,10.6v32c-8.8,1.6-15.4,8.7-15.4,17.2v21.1v35.1c0,2,1.7,3.5,3.8,3.5h15.4
	c2.1,0,3.8-1.6,3.8-3.5V332h115.5v10.6c0,2,1.8,3.5,3.8,3.5h15.4c2.1,0,3.8-1.6,3.8-3.5v-35.1v-21.1
	C801.9,278,795.3,270.9,786.5,269.2z M663.3,237.2c0-1.9,1.8-3.5,3.9-3.5H775c2.1,0,3.9,1.6,3.9,3.5v31.6h-7.6v-14
	c0-5.8-5.2-10.6-11.6-10.6h-23.1c-6.3,0-11.5,4.7-11.5,10.6v14h-7.7v-14c0-5.8-5.2-10.6-11.5-10.6h-23.1c-6.4,0-11.5,4.7-11.5,10.6
	v14h-7.7L663.3,237.2L663.3,237.2z M763.4,254.8v14h-30.8v-14c0-2,1.7-3.5,3.8-3.5h23.1C761.7,251.3,763.4,252.8,763.4,254.8z
	 M709.5,254.8v14h-30.9v-14c0-2,1.8-3.5,3.9-3.5h23.1C707.8,251.3,709.5,252.8,709.5,254.8z M794.2,339.2h-7.7v-10.6
	c0-1.9-1.7-3.5-3.8-3.5H659.5c-2.1,0-3.8,1.6-3.8,3.5v10.6H648v-28.1h146.3L794.2,339.2L794.2,339.2z M794.2,304.1H647.9v-17.6
	c0-5.8,5.1-10.6,11.5-10.6h15.3h38.5h15.4h38.5h15.4c6.4,0,11.6,4.8,11.6,10.6L794.2,304.1L794.2,304.1z M867.4,268.9h-53.9
	c-2.1,0-3.8,1.6-3.8,3.5v28.2v24.6h7.7V304h46.2v21.1h7.7v-24.6v-28.2C871.2,270.4,869.5,268.9,867.4,268.9z M863.5,297h-46.2v-21.1
	h46.2V297z M832.8,282.9h15.3v7h-15.3V282.9z M859.5,239.6l-7.7-21.1c-0.5-1.4-2-2.4-3.7-2.4h-15.3c-1.7,0-3.2,1-3.7,2.4l-7.6,21.1
	c-0.4,1.1-0.2,2.2,0.5,3.1c0.7,1,1.9,1.5,3.1,1.5h11.5v10.6h-7.7v7H852v-7h-7.7v-10.6h11.6c1.2,0,2.4-0.5,3.1-1.5
	C859.7,241.9,859.9,240.7,859.5,239.6z M830.4,237.2l5.1-14.1h9.8l5.1,14.1H830.4z M869,181.2l-111.7-45.7c-0.9-0.4-2.1-0.4-3.1,0
	l-111.7,45.7c-1.3,0.6-2.2,1.8-2.2,3.2v42.2h7.7v-39.9l107.8-44.2l107.8,44.2v39.9h7.7v-42.2C871.2,183.1,870.4,181.8,869,181.2z
	 M782.3,183.9l-7.6,1.2c0.2,1,0.3,2,0.3,2.9c0,9.7-8.6,17.6-19.2,17.6c-10.7,0-19.2-7.9-19.2-17.6c0-9.7,8.6-17.6,19.2-17.6
	c2.2,0,4.3,0.4,6.4,1l2.6-6.7c-2.9-0.9-5.9-1.4-9-1.4c-14.9,0-26.9,11-26.9,24.6s12.1,24.6,26.9,24.6c14.9,0,26.9-11,26.9-24.6
	C782.6,186.6,782.6,185.2,782.3,183.9z M779.9,164.4l-24.2,22.1l-5-4.6l-5.4,5l7.7,7c0.7,0.7,1.7,1.1,2.7,1.1s2-0.3,2.7-1.1l27-24.6
	L779.9,164.4z M155,648c0-2.1,1.7-3.7,3.8-3.7H257c2.1,0,3.7,1.6,3.7,3.7v55H155V648z M158.8,717.6c-2.1,0-3.8-1.6-3.8-3.6v-3.7
	h105.7v3.7c0,2-1.7,3.6-3.7,3.6H158.8z M221.5,739.7h-27.3l5-14.7h17.2L221.5,739.7z M162.5,849.7H155v-88h7.6v88H162.5z
	 M166.3,754.3H155V747h120.8v7.3H166.3z M343.7,849.7c-4.2,0-7.6-3.3-7.6-7.3c0-2-1.7-3.7-3.7-3.7h-37.7c-2.1,0-3.8,1.7-3.8,3.7
	c0,4.1-3.4,7.3-7.5,7.3c-4.2,0-7.5-3.3-7.5-7.3c0-4.1,3.3-7.3,7.5-7.3c0.2,0,0.4,0,0.6-0.1l22.6-3.7c1.8-0.3,3.2-1.8,3.2-3.6v-29.4
	h7.5v29.4c0,1.8,1.4,3.3,3.2,3.6l22.6,3.7c0.3,0.1,0.5,0.1,0.6,0.1c4.2,0,7.6,3.2,7.6,7.3C351.3,846.4,347.9,849.7,343.7,849.7z
	 M351.3,743.4V780c0,6.1-5.1,11-11.3,11h-81.2c-3.1,0-5.7-2.4-5.7-5.5c0-3,2.5-5.5,5.7-5.5h20.7c2.1,0,3.8-1.7,3.8-3.6V714
	c0-6,5.1-11,11.3-11H340c6.2,0,11.3,5,11.3,11V743.4z M366.4,849.7h-7.5v-88h7.5V849.7z M366.4,754.3h-7.5V747h7.5V754.3z
	 M222.6,805.7l-3.2,44h-30.7l-3.3-44H222.6z M855.9,674.3H666.3c-5.8,0-10.5,4.7-10.5,10.5v112.3c0,5.8,4.7,10.6,10.5,10.6v10.6
	c0,1.9,1.6,3.5,3.5,3.5h3.5v14c0,1.9,1.6,3.5,3.5,3.5h14c1.9,0,3.5-1.6,3.5-3.5v-14h133.4v14c0,1.9,1.6,3.5,3.5,3.5h14
	c1.9,0,3.5-1.6,3.5-3.5v-14h3.5c1.9,0,3.5-1.6,3.5-3.5v-10.6c5.8,0,10.5-4.7,10.5-10.6V684.8C866.4,678.9,861.7,674.3,855.9,674.3z
	 M687.4,832.2h-7v-7h7V832.2z M841.9,832.2h-7v-7h7V832.2z M859.4,684.8v52.7h-70.2v-56.2h66.7C857.8,681.2,859.4,682.8,859.4,684.8
	z M726,800.6V681.2h56.2v119.4L726,800.6L726,800.6z M662.8,797.1V684.8c0-1.9,1.6-3.5,3.5-3.5H719v119.4h-52.7
	C664.4,800.6,662.8,799,662.8,797.1z M848.9,814.6H673.4v-7h175.5V814.6z M855.9,800.6h-66.7v-56.2h70.2V797
	C859.4,799,857.8,800.6,855.9,800.6z M712,751.5c1.9,0,3.5-1.6,3.5-3.5v-14c0-1.9-1.6-3.5-3.5-3.5c-2,0-3.5,1.6-3.5,3.5v14
	C708.4,749.9,710,751.5,712,751.5z M733,730.4c-1.9,0-3.5,1.6-3.5,3.5v14c0,2,1.6,3.5,3.5,3.5c2,0,3.6-1.6,3.6-3.5v-14
	C736.6,732,735,730.4,733,730.4z M817.3,712.8h14c2,0,3.5-1.6,3.5-3.5s-1.6-3.5-3.5-3.5h-14c-1.9,0-3.5,1.6-3.5,3.5
	C813.8,711.3,815.3,712.8,817.3,712.8z M831.3,769h-14c-1.9,0-3.5,1.6-3.5,3.5c0,2,1.6,3.5,3.5,3.5h14c2,0,3.5-1.6,3.5-3.5
	C834.8,770.5,833.3,769,831.3,769z"/>
</svg>
