<?xml version="1.0" encoding="utf-8"?>
<!-- Generator: Adobe Illustrator 22.0.0, SVG Export Plug-In . SVG Version: 6.00 Build 0)  -->
<svg version="1.1" id="Layer_1" xmlns="http://www.w3.org/2000/svg" xmlns:xlink="http://www.w3.org/1999/xlink" x="0px" y="0px"
	 viewBox="0 0 500 500" style="enable-background:new 0 0 500 500;" xml:space="preserve">
<g>
</g>
<g>
</g>
<g>
</g>
<g>
</g>
<g>
</g>
<g>
</g>
<g>
</g>
<g>
</g>
<g>
</g>
<g>
</g>
<g>
</g>
<g>
</g>
<g>
</g>
<g>
</g>
<g>
</g>
<g>
	<g>
		<g>
			<path d="M419.7,4.9H63.9c-6.5,0-11.8,5.3-11.8,11.8v141.7c0,1.1,0.4,2.2,1.2,2.9c9.8,9.5,21.5,2.7,21.5-6.8V38.9
				c0-6.3,5.1-11.3,11.3-11.3h333.6c6.3,0,11.3,5.1,11.3,11.3V461c0,6.3-5.1,11.3-11.3,11.3H86.2c-6.3,0-11.3-5.1-11.3-11.3l0-210.3
				c0-5.7-4-10.8-9.7-11.6c-7-1-13,4.4-13,11.2V461c0,18.8,15.2,34,34,34h333.6c18.8,0,34-15.2,34-34V38.9
				C453.8,20.1,438.5,4.9,419.7,4.9z"/>
		</g>
	</g>
	<g>
		<g>
			<path d="M71.5,197.2c-2.1-2.1-5-3.3-8-3.3s-5.9,1.2-8,3.3c-2.1,2.1-3.3,5-3.3,8c0,3,1.2,5.9,3.3,8c2.1,2.1,5,3.3,8,3.3
				c3,0,5.9-1.2,8-3.3c2.1-2.1,3.3-5,3.3-8C74.8,202.2,73.6,199.3,71.5,197.2z"/>
		</g>
	</g>
	<g>
		<g>
			<path d="M199.4,271.7c-4.4-4.4-11.6-4.4-16,0l-30.2,30.2l-14-14c-4.4-4.4-11.6-4.4-16,0c-4.4,4.4-4.4,11.6,0,16l22,22
				c2.1,2.1,5,3.3,8,3.3c3,0,5.9-1.2,8-3.3l38.2-38.2C203.9,283.4,203.9,276.2,199.4,271.7z"/>
		</g>
	</g>
	<g>
		<g>
			<path d="M385.3,287.4h-132c-5.7,0-10.8,4-11.6,9.7c-1,7,4.4,13,11.2,13h132c5.7,0,10.8-4,11.6-9.7
				C397.6,293.4,392.2,287.4,385.3,287.4z"/>
		</g>
	</g>
	<g>
		<g>
			<path d="M378.9,88.8h-79.1c-5.7,0-10.8,4-11.6,9.7c-1,7,4.4,13,11.2,13h79.1c5.7,0,10.8-4,11.6-9.7
				C391.1,94.8,385.7,88.8,378.9,88.8z"/>
		</g>
	</g>
	<g>
		<g>
			<path d="M378.9,143.3h-79.1c-5.7,0-10.8,4-11.6,9.7c-1,7,4.4,13,11.2,13h79.1c5.7,0,10.8-4,11.6-9.7
				C391.1,149.3,385.7,143.3,378.9,143.3z"/>
		</g>
	</g>
	<g>
		<g>
			<path d="M378.9,197.7h-79.1c-5.7,0-10.8,4-11.6,9.7c-1,7,4.4,13,11.2,13h79.1c5.7,0,10.8-4,11.6-9.7
				C391.1,203.8,385.7,197.7,378.9,197.7z"/>
		</g>
	</g>
	<g>
		<g>
			<path d="M199.4,358.4c-4.4-4.4-11.6-4.4-16,0l-30.2,30.2l-14-14c-4.4-4.4-11.6-4.4-16,0c-4.4,4.4-4.4,11.6,0,16l22,22
				c2.1,2.1,5,3.3,8,3.3c3,0,5.9-1.2,8-3.3l38.2-38.2C203.9,370,203.9,362.8,199.4,358.4z"/>
		</g>
	</g>
	<g>
		<g>
			<path d="M385.3,373.6h-132c-5.7,0-10.8,4-11.6,9.7c-1,7,4.4,13,11.2,13h132c5.7,0,10.8-4,11.6-9.7
				C397.6,379.6,392.2,373.6,385.3,373.6z"/>
		</g>
	</g>
	<path d="M116.3,139.3c3,0,6-1.5,7.8-4.3l2-3.1c1,4.2,4.5,7.4,9,7.4c5.2,0,9.4-4.3,9.4-9.6c0,5.3,4.2,9.6,9.4,9.6
		c5.2,0,9.4-4.3,9.4-9.6c0,5.3,4.2,9.6,9.4,9.6c5.2,0,9.4-4.3,9.4-9.6c0,5.3,4.2,9.6,9.4,9.6c5.2,0,9.4-4.3,9.4-9.6
		c0,5.3,4.2,9.6,9.4,9.6c5.2,0,9.4-4.3,9.4-9.6c0,5.3,4.2,9.6,9.4,9.6c4.4,0,8-3.2,9-7.4l2,3.1c1.8,2.8,4.8,4.3,7.8,4.3
		c1.8,0,3.6-0.5,5.2-1.6c4.3-2.9,5.5-8.9,2.6-13.3l-17.2-23.5H201v-9.6h9.4c5.2,0,9.4-4.3,9.4-9.6v-9.6c0-5.3-4.2-9.6-9.4-9.6h-56.5
		c-5.2,0-9.4,4.3-9.4,9.6v9.6c0,5.3,4.2,9.6,9.4,9.6h9.4v9.6h-37.6l-17.2,23.5c-2.9,4.4-1.7,10.4,2.6,13.3
		C112.6,138.8,114.5,139.3,116.3,139.3z M172.7,91.4h18.8v9.6h-18.8V91.4z M257.4,216H106.9c0-7.9,6.3-14.4,14.1-14.4h122.3
		C251.1,201.6,257.4,208.1,257.4,216z M135.1,144.1h-9.4v43.2v9.6h112.9v-9.6v-43.2h-9.4H135.1z M135.1,187.3v-33.6h28.2v33.6H135.1
		z M172.7,187.3v-33.6h56.5v33.6H172.7z M149.2,168.1c0,2.7-2.1,4.8-4.7,4.8c-2.6,0-4.7-2.1-4.7-4.8c0-2.7,2.1-4.8,4.7-4.8
		C147.1,163.3,149.2,165.4,149.2,168.1z"/>
</g>
</svg>
