<?xml version="1.0" encoding="utf-8"?>
<!-- Generator: Adobe Illustrator 16.0.0, SVG Export Plug-In . SVG Version: 6.00 Build 0)  -->
<!DOCTYPE svg PUBLIC "-//W3C//DTD SVG 1.1//EN" "http://www.w3.org/Graphics/SVG/1.1/DTD/svg11.dtd">
<svg version="1.1" id="Layer_1" xmlns="http://www.w3.org/2000/svg" xmlns:xlink="http://www.w3.org/1999/xlink" x="0px" y="0px"
	 width="50px" height="50px" viewBox="0 0 50 50" enable-background="new 0 0 50 50" xml:space="preserve">
<g>
	<g>
		<g>
			<path fill="#FFFFFF" d="M36.928,13.141c-0.608-0.608-1.594-0.608-2.201,0L13.252,34.612c-0.608,0.611-0.608,1.593,0,2.201
				c0.304,0.303,0.703,0.457,1.101,0.457c0.399,0,0.796-0.151,1.101-0.457l21.474-21.473C37.535,14.733,37.535,13.749,36.928,13.141
				z"/>
		</g>
	</g>
	<g>
		<g>
			<path fill="#FFFFFF" d="M17.305,11.05c-3.396,0-6.16,2.764-6.16,6.162c0,3.396,2.764,6.16,6.16,6.16s6.162-2.765,6.162-6.16
				C23.467,13.814,20.703,11.05,17.305,11.05z M17.305,20.26c-1.681,0-3.049-1.367-3.049-3.048c0-1.683,1.368-3.05,3.049-3.05
				c1.681,0,3.05,1.367,3.05,3.05C20.355,18.893,18.986,20.26,17.305,20.26z"/>
		</g>
	</g>
	<g>
		<g>
			<path fill="#FFFFFF" d="M47.438,29.682c1.15-1.295,2.457-2.765,2.457-4.699c0-1.936-1.307-3.405-2.46-4.702
				c-0.652-0.732-1.326-1.488-1.521-2.095c-0.215-0.663-0.115-1.708-0.02-2.719c0.163-1.695,0.347-3.613-0.754-5.121
				c-1.105-1.52-2.999-1.939-4.666-2.308c-0.984-0.217-2.003-0.442-2.553-0.843c-0.534-0.391-1.057-1.278-1.561-2.138
				c-0.869-1.486-1.854-3.169-3.667-3.76C32.289,1.165,31.854,1.1,31.402,1.1c-1.304,0-2.547,0.539-3.752,1.062
				C26.705,2.573,25.724,2.999,25,2.999s-1.705-0.425-2.649-0.836C21.146,1.639,19.902,1.1,18.598,1.1
				c-0.451,0-0.886,0.064-1.292,0.197c-1.813,0.59-2.798,2.275-3.67,3.761c-0.502,0.861-1.022,1.747-1.556,2.136
				c-0.549,0.399-1.567,0.625-2.55,0.842c-1.671,0.37-3.563,0.79-4.67,2.31c-1.098,1.508-0.914,3.427-0.752,5.122
				c0.096,1.011,0.197,2.057-0.018,2.72c-0.198,0.605-0.872,1.363-1.524,2.094c-1.153,1.297-2.46,2.767-2.46,4.702
				c0,1.934,1.306,3.404,2.457,4.697c0.652,0.731,1.326,1.488,1.523,2.099c0.216,0.663,0.118,1.712,0.022,2.722
				c-0.161,1.691-0.344,3.612,0.752,5.12c1.107,1.521,3,1.939,4.672,2.308c0.983,0.215,2,0.44,2.548,0.84
				c0.535,0.388,1.055,1.276,1.559,2.138c0.868,1.485,1.855,3.172,3.669,3.761c0.404,0.13,0.839,0.198,1.289,0.198
				c1.303,0,2.549-0.542,3.753-1.062c0.946-0.41,1.927-0.837,2.652-0.837c0.724,0,1.705,0.424,2.651,0.837
				c1.204,0.52,2.45,1.062,3.751,1.062c0.451,0,0.887-0.068,1.294-0.198c1.81-0.589,2.795-2.272,3.664-3.758
				c0.507-0.861,1.026-1.75,1.563-2.138c0.55-0.402,1.567-0.628,2.55-0.845c1.667-0.366,3.561-0.784,4.669-2.306
				c1.098-1.508,0.914-3.429,0.751-5.123c-0.096-1.013-0.195-2.059,0.02-2.719C46.108,31.171,46.782,30.411,47.438,29.682z
				 M45.112,27.61c-0.866,0.972-1.761,1.979-2.159,3.205c-0.413,1.276-0.284,2.649-0.157,3.976c0.115,1.202,0.234,2.443-0.171,2.996
				c-0.412,0.567-1.637,0.84-2.822,1.101c-1.296,0.289-2.639,0.584-3.709,1.365c-1.063,0.771-1.753,1.945-2.416,3.081
				c-0.619,1.057-1.26,2.146-1.945,2.369c-0.594,0.189-1.755-0.286-2.845-0.757c-1.237-0.539-2.519-1.092-3.887-1.092
				c-1.37,0-2.651,0.553-3.891,1.089c-1.086,0.474-2.256,0.946-2.843,0.76c-0.685-0.221-1.328-1.315-1.945-2.372
				c-0.664-1.136-1.352-2.311-2.413-3.081c-1.075-0.781-2.415-1.076-3.709-1.362c-1.185-0.261-2.41-0.533-2.823-1.103
				c-0.403-0.554-0.286-1.792-0.173-2.994c0.126-1.326,0.256-2.701-0.158-3.976c-0.397-1.229-1.292-2.233-2.158-3.208
				c-0.82-0.919-1.67-1.874-1.67-2.625s0.852-1.707,1.673-2.629c0.865-0.973,1.76-1.977,2.159-3.205
				c0.414-1.277,0.283-2.648,0.157-3.976c-0.116-1.201-0.232-2.44,0.172-2.996c0.411-0.568,1.638-0.84,2.826-1.102
				c1.293-0.286,2.633-0.582,3.707-1.363c1.06-0.773,1.746-1.944,2.412-3.079c0.618-1.056,1.26-2.15,1.947-2.374
				c0.597-0.2,1.757,0.286,2.843,0.759C22.351,5.555,23.632,6.11,25,6.11s2.65-0.556,3.887-1.092
				c1.09-0.472,2.257-0.958,2.845-0.759c0.686,0.223,1.326,1.315,1.945,2.372c0.663,1.133,1.354,2.308,2.413,3.08
				c1.076,0.783,2.419,1.079,3.712,1.366c1.183,0.262,2.41,0.533,2.822,1.101c0.402,0.556,0.284,1.795,0.171,2.995
				c-0.127,1.327-0.256,2.7,0.157,3.976c0.398,1.227,1.293,2.232,2.156,3.205c0.823,0.923,1.673,1.879,1.673,2.63
				S45.936,26.688,45.112,27.61z"/>
		</g>
	</g>
	<g>
		<g>
			<path fill="#FFFFFF" d="M32.861,26.606c-3.398,0-6.159,2.762-6.159,6.16c0,3.397,2.761,6.163,6.159,6.163
				c3.395,0,6.16-2.766,6.16-6.163C39.021,29.368,36.259,26.606,32.861,26.606z M32.861,35.817c-1.682,0-3.046-1.37-3.046-3.051
				c0-1.682,1.364-3.049,3.046-3.049c1.681,0,3.048,1.367,3.048,3.049C35.909,34.447,34.542,35.817,32.861,35.817z"/>
		</g>
	</g>
	<g>
	</g>
	<g>
	</g>
	<g>
	</g>
	<g>
	</g>
	<g>
	</g>
	<g>
	</g>
	<g>
	</g>
	<g>
	</g>
	<g>
	</g>
	<g>
	</g>
	<g>
	</g>
	<g>
	</g>
	<g>
	</g>
	<g>
	</g>
	<g>
	</g>
</g>
</svg>
