<?xml version="1.0" encoding="utf-8"?>
<!-- Generator: Adobe Illustrator 22.0.0, SVG Export Plug-In . SVG Version: 6.00 Build 0)  -->
<svg version="1.1" id="Layer_1" xmlns="http://www.w3.org/2000/svg" xmlns:xlink="http://www.w3.org/1999/xlink" x="0px" y="0px"
	 viewBox="0 0 1000 1000" style="enable-background:new 0 0 1000 1000;" xml:space="preserve">
<style type="text/css">
	.st0{fill:#FFFFFF;stroke:#FFFFFF;stroke-width:3;stroke-miterlimit:10;}
</style>
<path class="st0" d="M827.4,39c-75.8,0-135.7,66-135.7,148.1s60.8,147.1,135.7,147.1S964,268.3,964,186.1S903.2,39,827.4,39z
	 M827.4,301.8c-59,0-106.7-51.7-106.7-115.7c0-63.9,48.7-114.6,106.7-114.6c59,0,106.7,51.7,106.7,115.7
	C934.1,251.1,886.4,301.8,827.4,301.8z M870.5,209.5c-0.9-3-0.9-5.1-2.8-8.1c-0.9-2-1.9-5.1-3.7-7.1c-1.9-2-2.8-4.1-4.7-6.1
	c-1.9-2-3.7-4.1-6.5-5.1c-1.9-2-4.7-3-6.6-4.1c-2.8-1-4.7-3-7.5-4.1c-2.8-1-5.6-2-7.5-3c-0.9,0-2.8-1-3.7-2c-0.9-1-2.8-1-3.7-2
	c-0.9-1-2.8-1-3.7-2c-0.9-1-1.9-2-2.8-3c-0.9-1-1.9-2-1.9-4.1c-0.9-1-0.9-3-0.9-4.1c0-2,0-3,0-5.1c0-1,0.9-3,0.9-4.1
	c0.9-1,0.9-3,1.9-4.1c0.9-1,1.9-2,2.8-3c0.9-1,2.8-2,4.7-2c1.9-1,2.8-1,4.7-1c0.9,0,1.9,0,2.8,0c0.9,0,1.9,0,2.8,0
	c1.9,0,2.8,0,4.7,1c1.9,0,3.7,1,4.7,1c0.9,0,2.8,1,3.7,1c1.9,0,2.8,1,3.7,1l4.7,2l0.9-6.1l1.9-16.2v-4.1l-3.7-1c-0.9,0-2.8-1-3.7-1
	c-0.9,0-1.9-1-3.7-1c-0.9,0-2.8-1-4.7-1c-1.9,0-2.8-1-4.7-1h-0.9V95.8v-5.1H833h-13.1h-4.7v5.1V111h-0.9c-2.8,1-5.6,2-8.4,4.1
	c-2.8,1-4.7,3-6.6,5.1c-1.9,2-3.7,4.1-5.6,7.1c-1.9,2-2.8,5.1-3.7,8.1c-0.9,3-1.9,6.1-2.8,9.1c-0.9,3-0.9,7.1-0.9,10.1
	c0,3,0,5.1,0.9,8.1c0.9,3,0.9,5.1,2.8,8.1c0.9,2,2.8,5.1,3.7,7.1c1.9,2,2.8,4.1,4.7,6.1s3.7,4.1,6.6,5.1c1.9,2,4.7,3,6.6,4.1
	c2.8,1,5.6,3,7.5,4.1c2.8,1,5.6,2,7.5,3c0.9,0,2.8,1,3.7,2c0.9,1,2.8,1,3.7,2c0.9,1,1.9,2,2.8,2c0.9,1,1.9,2,2.8,3
	c0.9,1,0.9,2,1.9,4.1c0,1,0.9,3,0.9,5.1c0,2,0,3,0,5.1c0,1-0.9,3-1.9,4.1s-1.9,2-2.8,3c-0.9,1-1.9,2-3.7,3c-0.9,1-2.8,1-3.7,2
	c-0.9,0-2.8,1-4.7,1c-0.9,0-1.9,0-3.7,0c-0.9,0-2.8,0-3.7,0c-1.9,0-3.7,0-4.7,0c-1.9,0-3.7-1-4.7-1c-1.9,0-3.7-1-5.6-2
	c-1.9-1-3.7-1-5.6-2c-0.9,0-1.9-1-2.8-1c-0.9,0-1.9-1-2.8-1l-5.6-3l-0.9,7.1l-1.9,18.3v3l2.8,1c3.7-1,5.6,0,8.4,1c1.9,1,4.7,2,6.6,2
	c1.9,1,4.7,1,7.5,2c2.8,1,4.7,1,7.5,1h1.9v15.2v5.1h4.7h13.1h4.7v-5.1v-16.2h0.9c2.8-1,5.6-2,8.4-4.1c2.8-1,4.7-3,7.5-5.1
	c1.9-2,3.7-4.1,5.6-7.1c1.9-2,2.8-5.1,4.7-8.1c0.9-3,1.9-6.1,2.8-9.1c0.9-3,0.9-6.1,0.9-10.1C871.4,214.5,871.4,212.5,870.5,209.5z
	 M761.9,353.5c-4.7-7.1-15-8.1-21.5-3L588.8,481.4l-195.6-88.3c-4.7-2-10.3-1-14,2L169.6,557.5c-6.6,5.1-8.4,15.2-3.7,22.3
	c2.8,5.1,7.5,7.1,12.2,7.1c2.8,0,5.6-1,8.4-3l203.1-157.3L586,514.8c4.7,2,11.2,1,15-2l158.1-136
	C765.7,371.8,766.6,360.6,761.9,353.5z M980.9,909.5h-69.2V439.8c0-9.1-6.6-16.2-15-16.2H759.1c-8.4,0-15,7.1-15,16.2v469.8h-50.5
	V602.1c0-9.1-6.6-16.2-15-16.2H540.1c-8.4,0-15,7.1-15,16.2v307.4h-50.5V577.8c0-9.1-6.6-16.2-15-16.2H322.1c-8.4,0-15,7.1-15,16.2
	v331.8h-50.5V673.1c0-9.1-6.6-16.2-15-16.2H103.1c-8.4,0-15,7.1-15,16.2v236.4H18c-8.4,0-15,7.1-15,16.2c0,9.1,6.6,16.2,15,16.2
	h84.2h137.6h82.3h137.6h80.5h137.6h80.5h137.6h84.2c8.4,0,15-7.1,15-16.2C995.9,916.6,989.3,909.5,980.9,909.5z M225.7,909.5H118.1
	V689.4h107.6V909.5z M444.7,909.5H337.1V594h107.6V909.5z M662.7,909.5H555.1V618.3h107.6V909.5z M881.7,909.5H774.1V456h107.6
	V909.5z"/>
</svg>
