<?xml version="1.0" encoding="utf-8"?>
<!-- Generator: Adobe Illustrator 22.0.0, SVG Export Plug-In . SVG Version: 6.00 Build 0)  -->
<svg version="1.1" id="Layer_1" xmlns="http://www.w3.org/2000/svg" xmlns:xlink="http://www.w3.org/1999/xlink" x="0px" y="0px"
	 viewBox="0 0 500 500" style="enable-background:new 0 0 500 500;" xml:space="preserve">
<g>
	<path d="M250.1,221.5c30.2,0,54.8-24.6,54.8-54.8s-24.6-54.8-54.8-54.8c-30.2,0-54.8,24.6-54.8,54.8S219.9,221.5,250.1,221.5z
		 M250.1,127.5c21.6,0,39.2,17.6,39.2,39.2s-17.6,39.2-39.2,39.2s-39.2-17.6-39.2-39.2S228.5,127.5,250.1,127.5z"/>
	<path d="M248.7,446.7l120.1-173.5c45.1-60.1,38.5-158.8-13.9-211.3c-28.4-28.4-66.1-44-106.2-44s-77.8,15.6-106.2,44
		c-52.5,52.5-59,151.2-14.1,211L248.7,446.7z M153.6,73c25.4-25.4,59.2-39.4,95.1-39.4s69.7,14,95.1,39.4
		c47.4,47.4,53.2,136.5,12.3,191.1L248.7,419.2L141.1,263.8C100.4,209.5,106.2,120.3,153.6,73z"/>
	<path d="M319.5,476h-133c-5.2,0-9.5-4.3-9.5-9.5l0,0c0-5.2,4.3-9.5,9.5-9.5h133c5.2,0,9.5,4.3,9.5,9.5l0,0
		C329,471.7,324.7,476,319.5,476z"/>
</g>
<g>
</g>
<g>
</g>
<g>
</g>
<g>
</g>
<g>
</g>
<g>
</g>
<g>
</g>
<g>
</g>
<g>
</g>
<g>
</g>
<g>
</g>
<g>
</g>
<g>
</g>
<g>
</g>
<g>
</g>
</svg>
