<?xml version="1.0" encoding="utf-8"?>
<!-- Generator: Adobe Illustrator 22.0.0, SVG Export Plug-In . SVG Version: 6.00 Build 0)  -->
<svg version="1.1" id="Layer_1" xmlns="http://www.w3.org/2000/svg" xmlns:xlink="http://www.w3.org/1999/xlink" x="0px" y="0px"
	 viewBox="0 0 1000 1000" style="enable-background:new 0 0 1000 1000;" xml:space="preserve">
<style type="text/css">
	.st0{fill:#FFFFFF;stroke:#FFFFFF;stroke-miterlimit:10;}
</style>
<path class="st0" d="M732,312.9c-28.1-11.8-36.2-19-36.2-31.9c0-10.3,7.4-22.4,28.4-22.4c18.6,0,32.8,7.7,32.9,7.8
	c1.5,0.8,3.2,1.3,4.8,1.3c4.1,0,7.7-2.6,9.2-6.6l5.1-13.7c1.8-5-0.9-9.3-4.4-10.9c-11.4-5.2-33.8-9.3-34-9.3
	c-0.4-0.1-1.6-0.3-1.6-1.9l-0.1-19.9c0-6-4.8-10.9-10.6-10.9h-9.2c-5.8,0-10.6,4.9-10.6,10.9v20.9c0,1.6-1.7,2.3-2.3,2.4
	c-28.2,7.1-45.8,28.8-45.8,56.2c0,34.2,26.9,49.6,55.8,61.2c23.2,9.6,32.6,19.3,32.6,33.5c0,15.5-13.4,26.3-32.6,26.3
	c-16.4,0-38.5-10.9-38.8-11c-1.4-0.7-2.9-1.1-4.5-1.1c-4.2,0-7.9,2.7-9.4,6.8l-4.9,13.9c-1.7,5.2,0.9,9.4,4.3,11.2
	c13.6,7.5,40,11.8,41.1,12c0.3,0,1.9,0.6,1.9,2.2v20.8c0,6,4.8,10.9,10.6,10.9h9.5c5.8,0,10.6-4.9,10.6-10.9v-21.9
	c0-2,1.4-2.2,1.7-2.3c30-7.1,48.5-30.2,48.5-59.2C784.7,347.5,768.9,328.2,732,312.9z M720.2,72c-137.1,0-248.3,116.9-248.3,261.1
	s111.2,261.1,248.3,261.1s248.3-116.9,248.3-261.1S857.4,72,720.2,72z M720.2,533.6c-105.4,0-190.8-89.8-190.8-200.6
	s85.4-200.6,190.8-200.6S911,222.2,911,333S825.6,533.6,720.2,533.6z M918.1,720.6c-52.8,30.6-125.4,59-197.9,70.9
	c-64.4,10.6-185.7-15-185.7-45.3c0-11.5,106.3,28.3,170.6,10.2c49.3-13.8,42.3-62.3,15.5-68.7c-26.7-6.4-182.9-66.5-249.7-68.6
	c-31.4-1-109.1,11.5-146.6,17.9c-12.9,2.2-20.9,2-21.7,14.9c-3.7,60.2-11.1,183.2-15.1,247.4c-0.1,1.4,1.7,19.6,16,6.8
	c15.7-14.1,37.7-29.7,58-24.8c31.9,7.6,308.1,60.8,346.3,51.5c54.5-13.3,208.8-109.5,238.4-139.3
	C992.1,747.3,956.5,698.4,918.1,720.6z M226.5,634.7l-144.7-7.5c-11.2-0.6-22.6,8.3-25.4,19.7L30.1,898
	c-2.8,11.4,4.1,21.1,15.3,21.5h160.4c11.2,0.5,21-8.8,21.9-20.5l17.6-242C246.1,645.4,237.6,635.3,226.5,634.7z M141.3,886.3
	c-22.1,0-40-18.8-40-42.1c0-23.2,17.9-42.1,40-42.1s40,18.8,40,42.1S163.4,886.3,141.3,886.3z"/>
</svg>
