<?xml version="1.0" encoding="utf-8"?>
<!-- Generator: Adobe Illustrator 22.0.0, SVG Export Plug-In . SVG Version: 6.00 Build 0)  -->
<svg version="1.1" id="Layer_1" xmlns="http://www.w3.org/2000/svg" xmlns:xlink="http://www.w3.org/1999/xlink" x="0px" y="0px"
	 viewBox="0 0 1000 1000" style="enable-background:new 0 0 1000 1000;" xml:space="preserve">
<style type="text/css">
	.st0{fill:#FFFFFF;stroke:#FFFFFF;stroke-miterlimit:10;}
</style>
<path class="st0" d="M923,408.5l-65.8-11.2c-6.9-22.1-15.7-43.5-26.4-63.9l38.8-54.3c16.5-23.1,13.9-54.7-6.3-74.7L804.9,146
	c-11-11-25.5-17-41-17c-12.1,0-23.7,3.7-33.5,10.8l-54.5,38.8c-21.2-11.2-43.3-20.4-66.2-27.2l-11-65.1C594,58.4,569.9,38,541.5,38
	H459c-28.4,0-52.5,20.4-57.2,48.4L390.4,153c-21.9,6.9-43.3,15.9-63.7,26.8L272.8,141c-9.8-7.1-21.6-10.8-33.7-10.8
	c-15.5,0-30.2,6.1-41,17l-58.6,58.4c-20,20-22.7,51.5-6.3,74.7l39.2,55.1c-10.8,20.6-19.4,41.9-26.1,64.1l-65.1,11
	c-28,4.7-48.4,28.8-48.4,57.2v82.5c0,28.4,20.4,52.5,48.4,57.2l66.6,11.4c6.9,21.9,15.9,43.3,26.8,63.7L136,736.2
	c-16.5,23.1-13.9,54.7,6.3,74.7l58.4,58.4c11,11,25.5,17,41,17c12.1,0,23.7-3.7,33.5-10.8l55.1-39.2c19.8,10.4,40.6,18.8,61.9,25.5
	l11,65.8c4.7,28,28.8,48.4,57.2,48.4h82.7c28.4,0,52.5-20.4,57.2-48.4l11.2-65.8c22.1-6.9,43.5-15.7,63.9-26.5l54.3,38.8
	c9.8,7.1,21.6,10.8,33.7,10.8l0,0c15.5,0,30-6.1,41-17l58.4-58.4c20-20,22.7-51.5,6.3-74.7l-38.8-54.5
	c10.8-20.6,19.8-41.9,26.5-63.9l65.8-11c28-4.7,48.4-28.8,48.4-57.2v-82.5C971.4,437.3,951,413.2,923,408.5z M918.5,548.2
	c0,2.5-1.8,4.7-4.3,5.1L831.9,567c-10.4,1.8-18.6,9.4-21.2,19.4c-7.4,28.8-18.8,56.4-34.1,82.1c-5.3,9-4.9,20.2,1.2,28.8l48.4,68.2
	c1.4,2,1.2,4.9-0.6,6.7l-58.4,58.4c-1.4,1.4-2.7,1.6-3.7,1.6c-1.2,0-2.2-0.4-2.9-1l-68-48.4c-8.4-6.1-19.8-6.5-28.8-1.2
	c-25.7,15.3-53.3,26.6-82.1,34.1c-10.2,2.5-17.8,11-19.4,21.2l-13.9,82.3c-0.4,2.5-2.5,4.3-5.1,4.3h-82.5c-2.5,0-4.7-1.8-5.1-4.3
	L442,836.9c-1.8-10.4-9.4-18.6-19.4-21.2c-28-7.3-55.1-18.4-80.3-32.9c-4.1-2.4-8.8-3.5-13.3-3.5c-5.3,0-10.8,1.6-15.3,4.9L245,833
	c-1,0.6-2,1-2.9,1c-0.8,0-2.4-0.2-3.7-1.6L180,774c-1.8-1.8-2-4.5-0.6-6.7l48.2-67.6c6.1-8.6,6.5-20,1.2-29
	c-15.3-25.5-27-53.1-34.5-81.9c-2.7-10-11-17.6-21.2-19.4l-82.9-14.1c-2.5-0.4-4.3-2.5-4.3-5.1v-82.5c0-2.5,1.8-4.7,4.3-5.1
	l81.7-13.7c10.4-1.8,18.8-9.4,21.4-19.6c7.2-28.8,18.4-56.6,33.5-82.3c5.3-9,4.7-20.2-1.4-28.6l-48.8-68.6c-1.4-2-1.2-4.9,0.6-6.7
	l58.4-58.4c1.4-1.4,2.7-1.6,3.7-1.6c1.2,0,2.2,0.4,2.9,1l67.6,48.2c8.6,6.1,20,6.5,29,1.2c25.5-15.3,53.1-27,81.9-34.5
	c10-2.7,17.6-11,19.4-21.2L454.3,95c0.4-2.5,2.5-4.3,5.1-4.3h82.5c2.5,0,4.7,1.8,5.1,4.3l13.7,81.7c1.8,10.4,9.4,18.8,19.6,21.4
	c29.6,7.4,57.8,19,84.1,34.5c9,5.3,20.2,4.9,28.8-1.2l67.6-48.6c1-0.6,2-1,2.9-1c0.8,0,2.4,0.2,3.7,1.6l58.4,58.4
	c1.8,1.8,2,4.5,0.6,6.7l-48.4,68c-6.1,8.4-6.5,19.8-1.2,28.8c15.3,25.7,26.6,53.3,34.1,82.1c2.5,10.2,11,17.8,21.2,19.4l82.3,13.9
	c2.5,0.4,4.3,2.5,4.3,5.1v82.5L918.5,548.2L918.5,548.2z M502.1,304.5c-111.7,0-202.4,90.7-202.4,202.4s90.7,202.4,202.4,202.4
	s202.4-90.7,202.4-202.4S613.8,304.5,502.1,304.5z M502.1,656.4c-82.5,0-149.5-67-149.5-149.5s67-149.5,149.5-149.5
	s149.5,67,149.5,149.5S584.6,656.4,502.1,656.4z"/>
</svg>
