<?xml version="1.0" encoding="utf-8"?>
<!-- Generator: Adobe Illustrator 16.0.0, SVG Export Plug-In . SVG Version: 6.00 Build 0)  -->
<!DOCTYPE svg PUBLIC "-//W3C//DTD SVG 1.1//EN" "http://www.w3.org/Graphics/SVG/1.1/DTD/svg11.dtd">
<svg version="1.1" id="Layer_1" xmlns="http://www.w3.org/2000/svg" xmlns:xlink="http://www.w3.org/1999/xlink" x="0px" y="0px"
	 width="50px" height="50px" viewBox="0 0 50 50" enable-background="new 0 0 50 50" xml:space="preserve">
<g>
	<g>
		<g>
			<path fill="#FFFFFF" d="M46.869,19.476l-3.464-0.587c-0.358-1.163-0.824-2.285-1.389-3.356l2.041-2.855
				c0.863-1.212,0.731-2.872-0.33-3.922l-3.071-3.07c-0.573-0.577-1.335-0.896-2.154-0.896c-0.638,0-1.241,0.196-1.755,0.567
				l-2.865,2.038c-1.112-0.585-2.275-1.071-3.483-1.431l-0.576-3.418C29.577,1.071,28.307,0,26.816,0H22.48
				c-1.493,0-2.76,1.071-3.009,2.545l-0.596,3.5C17.722,6.406,16.6,6.88,15.527,7.456l-2.83-2.039
				c-0.515-0.37-1.133-0.567-1.771-0.567c-0.814,0-1.588,0.322-2.154,0.897l-3.08,3.067c-1.051,1.051-1.194,2.711-0.33,3.926
				l2.061,2.894c-0.566,1.083-1.019,2.205-1.371,3.367l-3.418,0.578c-1.473,0.247-2.544,1.514-2.544,3.009v4.334
				c0,1.492,1.071,2.76,2.544,3.01l3.502,0.596c0.36,1.156,0.834,2.273,1.41,3.348l-2.028,2.824
				c-0.865,1.211-0.73,2.869,0.329,3.922l3.07,3.07c0.576,0.576,1.338,0.893,2.152,0.893c0.639,0,1.245-0.191,1.761-0.564
				l2.894-2.061c1.04,0.545,2.134,0.988,3.254,1.338l0.576,3.463c0.249,1.471,1.516,2.543,3.008,2.543h4.345
				c1.496,0,2.764-1.072,3.007-2.543l0.59-3.463c1.163-0.359,2.286-0.822,3.359-1.393l2.854,2.039
				c0.514,0.375,1.132,0.566,1.767,0.566l0,0c0.816,0,1.575-0.316,2.157-0.891l3.068-3.068c1.05-1.051,1.19-2.711,0.324-3.924
				l-2.038-2.869c0.57-1.078,1.042-2.199,1.395-3.354l3.461-0.58c1.471-0.244,2.543-1.512,2.543-3.004v-4.337
				C49.409,20.988,48.34,19.723,46.869,19.476z M46.632,26.82c0,0.133-0.093,0.246-0.226,0.268l-4.324,0.717
				c-0.548,0.094-0.979,0.5-1.118,1.025c-0.39,1.514-0.985,2.963-1.787,4.313c-0.282,0.475-0.263,1.063,0.063,1.516l2.543,3.582
				c0.073,0.102,0.063,0.26-0.033,0.352l-3.068,3.068c-0.074,0.072-0.145,0.08-0.198,0.08c-0.059,0-0.109-0.016-0.152-0.047
				l-3.573-2.547c-0.44-0.32-1.045-0.342-1.516-0.059c-1.347,0.801-2.801,1.396-4.313,1.789c-0.533,0.137-0.938,0.576-1.021,1.115
				l-0.729,4.324c-0.022,0.133-0.136,0.227-0.271,0.227h-4.334c-0.133,0-0.249-0.094-0.267-0.227l-0.721-4.324
				c-0.093-0.547-0.494-0.979-1.019-1.115c-1.475-0.383-2.896-0.971-4.223-1.73c-0.218-0.121-0.464-0.186-0.7-0.186
				c-0.279,0-0.567,0.078-0.805,0.256l-3.606,2.564c-0.049,0.033-0.102,0.053-0.154,0.053c-0.041,0-0.123-0.008-0.196-0.078
				l-3.068-3.072c-0.093-0.092-0.103-0.236-0.031-0.35l2.535-3.551c0.319-0.457,0.34-1.053,0.062-1.527
				c-0.804-1.338-1.422-2.789-1.813-4.305c-0.144-0.525-0.577-0.928-1.114-1.02l-4.355-0.744C2.964,27.17,2.87,27.055,2.87,26.922
				v-4.334c0-0.135,0.095-0.249,0.227-0.27l4.293-0.721c0.546-0.092,0.99-0.493,1.125-1.029c0.38-1.516,0.967-2.977,1.76-4.327
				c0.28-0.474,0.247-1.06-0.07-1.502l-2.566-3.606c-0.073-0.103-0.061-0.257,0.033-0.35l3.067-3.07
				c0.075-0.07,0.144-0.082,0.196-0.082c0.061,0,0.113,0.021,0.154,0.052l3.554,2.532c0.453,0.32,1.051,0.34,1.525,0.063
				c1.338-0.803,2.791-1.421,4.305-1.813c0.525-0.144,0.927-0.576,1.019-1.111l0.741-4.357c0.021-0.134,0.134-0.227,0.27-0.227
				h4.334c0.133,0,0.246,0.093,0.269,0.227l0.723,4.295c0.09,0.546,0.494,0.988,1.024,1.122c1.558,0.391,3.043,0.999,4.42,1.813
				c0.475,0.278,1.062,0.257,1.52-0.063l3.551-2.555c0.051-0.028,0.099-0.052,0.152-0.052c0.042,0,0.121,0.011,0.194,0.084
				l3.068,3.068c0.099,0.093,0.107,0.237,0.034,0.35l-2.546,3.573c-0.316,0.445-0.339,1.041-0.063,1.515
				c0.805,1.349,1.4,2.801,1.793,4.316c0.132,0.536,0.578,0.936,1.114,1.021l4.324,0.731c0.133,0.021,0.227,0.134,0.227,0.267v4.337
				H46.632z"/>
			<path fill="#FFFFFF" d="M24.745,14.006c-5.869,0-10.639,4.768-10.639,10.64c0,5.869,4.771,10.639,10.639,10.639
				c5.871,0,10.641-4.77,10.641-10.639C35.386,18.774,30.615,14.006,24.745,14.006z M24.745,32.508
				c-4.334,0-7.856-3.525-7.856-7.861c0-4.337,3.521-7.86,7.856-7.86c4.335,0,7.858,3.523,7.858,7.86
				C32.603,28.982,29.08,32.508,24.745,32.508z"/>
		</g>
	</g>
	<g>
	</g>
	<g>
	</g>
	<g>
	</g>
	<g>
	</g>
	<g>
	</g>
	<g>
	</g>
	<g>
	</g>
	<g>
	</g>
	<g>
	</g>
	<g>
	</g>
	<g>
	</g>
	<g>
	</g>
	<g>
	</g>
	<g>
	</g>
	<g>
	</g>
</g>
</svg>
