<?xml version="1.0" encoding="utf-8"?>
<!-- Generator: Adobe Illustrator 22.0.0, SVG Export Plug-In . SVG Version: 6.00 Build 0)  -->
<svg version="1.1" id="Layer_1" xmlns="http://www.w3.org/2000/svg" xmlns:xlink="http://www.w3.org/1999/xlink" x="0px" y="0px"
	 viewBox="0 0 1000 1000" style="enable-background:new 0 0 1000 1000;" xml:space="preserve">
<style type="text/css">
	.st0{fill:#FFFFFF;stroke:#FFFFFF;stroke-miterlimit:10;}
</style>
<path class="st0" d="M81.5,353c19.2,0,38.1-11.1,49.6-31.5l12.8-22.8c6.4,30.9,28.8,54.3,56.7,54.3c32.9,0,59.5-31.6,59.5-70.8
	c0,39.1,26.6,70.8,59.5,70.8s59.5-31.6,59.5-70.8c0,39.1,26.6,70.8,59.5,70.8s59.5-31.6,59.5-70.8c0,39.1,26.6,70.8,59.5,70.8
	c32.9,0,59.5-31.6,59.5-70.8c0,39.1,26.6,70.8,59.5,70.8s59.5-31.6,59.5-70.8c0,39.1,26.6,70.8,59.5,70.8c28,0,50.3-23.4,56.7-54.3
	l12.8,22.8c11.4,20.5,30.3,31.5,49.6,31.5c11.3,0,22.8-3.9,32.9-11.9c27.4-21.7,34.7-65.6,16.5-98.1L855,70H617H379H141L32,243
	c-18.2,32.5-10.8,76.4,16.5,98.1C58.6,349.1,70.1,353,81.5,353z M557.5,70h-119 M974,919H22c0-58.6,40-106.1,89.2-106.1h773.5
	C934,812.9,974,860.4,974,919z M200.5,388.4H141v318.4v70.8h714v-70.8V388.4h-59.5H200.5z M200.5,706.7V459.1H379v247.6H200.5z
	 M438.5,706.7V459.1h357v247.6H438.5z M289.8,565.3c0,19.6-13.3,35.4-29.7,35.4c-16.4,0-29.7-15.8-29.7-35.4
	c0-19.6,13.3-35.4,29.7-35.4C276.5,529.9,289.8,545.7,289.8,565.3z"/>
</svg>
