<?xml version="1.0" encoding="utf-8"?>
<!-- Generator: Adobe Illustrator 16.0.0, SVG Export Plug-In . SVG Version: 6.00 Build 0)  -->
<!DOCTYPE svg PUBLIC "-//W3C//DTD SVG 1.1//EN" "http://www.w3.org/Graphics/SVG/1.1/DTD/svg11.dtd">
<svg version="1.1" id="Layer_1" xmlns="http://www.w3.org/2000/svg" xmlns:xlink="http://www.w3.org/1999/xlink" x="0px" y="0px"
	 width="50px" height="50px" viewBox="0 0 50 50" enable-background="new 0 0 50 50" xml:space="preserve">
<g>
	<g>
		<g>
			<path fill="#FFFFFF" stroke="#FFFFFF" stroke-miterlimit="10" d="M47.103,21.834h-1.184v-8.207c0-1.922-1.468-3.438-3.244-3.438
				h-0.888V4.707c0-1.927-1.375-3.441-3.047-3.441c0,0-0.093,0-0.197,0L4.892,10.178c-0.01,0-0.029,0.011-0.039,0.011
				c-1.66,0.135-3.01,1.604-3.01,3.438v31.825c0,1.921,1.471,3.442,3.249,3.442h37.583c1.869,0,3.344-1.521,3.344-3.442v-8.415
				h1.084c0.587,0,0.981-0.412,0.981-1.016V22.853C48.084,22.242,47.591,21.834,47.103,21.834z M38.926,3.188
				c0.494,0.101,0.98,0.713,0.98,1.519v5.471H12.759L38.926,3.188z M44.051,45.452c0,0.807-0.593,1.515-1.376,1.515H5.092
				c-0.786,0-1.381-0.708-1.381-1.515V13.627c0-0.805,0.595-1.515,1.381-1.515H42.57c0.785,0,1.383,0.71,1.383,1.515v8.207h-9.745
				c-4.133,0-7.378,3.342-7.378,7.601c0,4.253,3.344,7.603,7.378,7.603h9.843V45.452z M46.104,35.11H34.208
				c-2.954,0-5.402-2.543-5.402-5.572c0-3.03,2.459-5.566,5.402-5.566h11.896V35.11z"/>
			<path fill="#FFFFFF" stroke="#FFFFFF" stroke-miterlimit="10" d="M33.123,29.638c0,0.608,0.492,1.01,0.979,1.01h0.889
				c0.494,0,0.987-0.412,0.987-1.01c0-0.609-0.493-1.011-0.987-1.011h-0.876C33.522,28.627,33.123,29.033,33.123,29.638z"/>
		</g>
	</g>
</g>
</svg>
