<?xml version="1.0" encoding="utf-8"?>
<!-- Generator: Adobe Illustrator 16.0.0, SVG Export Plug-In . SVG Version: 6.00 Build 0)  -->
<!DOCTYPE svg PUBLIC "-//W3C//DTD SVG 1.1//EN" "http://www.w3.org/Graphics/SVG/1.1/DTD/svg11.dtd">
<svg version="1.1" id="Layer_1" xmlns="http://www.w3.org/2000/svg" xmlns:xlink="http://www.w3.org/1999/xlink" x="0px" y="0px"
	 width="1000px" height="1000px" viewBox="0 0 1000 1000" enable-background="new 0 0 1000 1000" xml:space="preserve">
<g>
	<g>
		<g>
			<path fill="#FFFFFF" d="M427.705,486.913c-6.393-6.393-14.893-9.913-23.933-9.913c-9.041,0-17.541,3.52-23.933,9.913
				c-13.196,13.197-13.196,34.67,0,47.867c6.393,6.392,14.893,9.913,23.934,9.913c9.04,0,17.541-3.521,23.931-9.913
				c6.394-6.392,9.915-14.892,9.915-23.934C437.619,501.806,434.098,493.306,427.705,486.913z M418.131,525.207
				c-3.835,3.836-8.935,5.948-14.358,5.948c-5.425,0-10.525-2.112-14.362-5.948c-7.917-7.917-7.917-20.803,0.001-28.721
				c3.835-3.835,8.934-5.948,14.36-5.948c5.424,0,10.523,2.112,14.36,5.949c3.836,3.835,5.949,8.936,5.949,14.359
				C424.08,516.271,421.968,521.368,418.131,525.207z"/>
		</g>
	</g>
	<g>
		<g>
			<path fill="#FFFFFF" d="M517.055,576.262c-6.392-6.393-14.891-9.912-23.932-9.912c-9.041,0-17.542,3.52-23.934,9.912
				c-13.197,13.198-13.197,34.671,0,47.867c6.392,6.394,14.891,9.912,23.932,9.912c9.042,0,17.542-3.52,23.933-9.913
				c6.394-6.392,9.914-14.892,9.914-23.931C526.97,591.155,523.449,582.655,517.055,576.262z M507.481,614.556
				c-3.836,3.835-8.936,5.948-14.361,5.948c-5.424,0-10.524-2.112-14.359-5.948c-7.917-7.917-7.917-20.803,0-28.722
				c3.836-3.835,8.936-5.947,14.36-5.947s10.525,2.112,14.361,5.947c3.834,3.837,5.947,8.938,5.947,14.362
				C513.429,605.619,511.316,610.72,507.481,614.556z"/>
		</g>
	</g>
	<g>
		<g>
			<path fill="#FFFFFF" d="M517.053,486.913c-2.644-2.644-6.929-2.644-9.573-0.001L379.839,614.556
				c-2.644,2.643-2.644,6.929,0,9.573c1.321,1.32,3.054,1.982,4.786,1.982c1.732,0,3.465-0.661,4.786-1.982l127.642-127.643
				C519.697,493.842,519.697,489.555,517.053,486.913z"/>
		</g>
	</g>
	<g>
		<g>
			<path fill="#FFFFFF" d="M727.204,277.003c-9.141-9.14-26.805-7.169-51.081,5.706c-20.967,11.119-44.982,29.485-65.887,50.391
				c-8.135,8.136-15.707,16.541-22.559,25.023l-94.979-11.392c-1.254-0.154-2.582-0.235-3.954-0.235
				c-5.506,0.018-11.534,1.218-17.41,3.493c-6.102,2.393-11.12,5.515-14.911,9.288l-84.76,84.751c-2.636,2.644-2.636,6.932,0,9.577
				c1.281,1.272,2.978,1.978,4.792,1.978c1.805,0,3.501-0.705,4.783-1.978l84.751-84.76c2.284-2.311,6.119-4.639,10.253-6.237
				c4.116-1.606,8.764-2.573,12.429-2.573h0.072c0.83,0,1.616,0.045,2.338,0.136l123.715,14.839
				c3.167,0.361,6.651,2.175,9.305,4.855c2.681,2.653,4.495,6.138,4.855,9.306l2.542,21.19
				c-10.358,7.907-20.558,14.447-30.077,19.207c-1.76,0.879-3.604,1.737-5.486,2.547c-1.46-5.842-4.477-11.201-8.845-15.568
				c-6.349-6.348-14.789-9.844-23.768-9.844c-8.979,0-17.419,3.496-23.77,9.844c-13.105,13.107-13.105,34.432,0.001,47.538
				c6.348,6.348,14.79,9.845,23.769,9.845s17.421-3.497,23.768-9.845c4.846-4.844,8.022-10.908,9.26-17.497
				c3.431-1.298,7.127-2.913,11.125-4.911c8.276-4.138,17.003-9.513,25.876-15.865l10.443,87.074
				c0.091,0.724,0.136,1.508,0.136,2.338c0.009,3.683-0.947,8.358-2.573,12.502c-1.596,4.133-3.925,7.959-6.235,10.253
				L456.423,716.665c-2.112,2.113-4.946,3.276-7.978,3.285c-3.033-0.009-5.867-1.172-7.979-3.285L287.299,563.501
				c-2.112-2.113-3.276-4.945-3.285-7.979c0.009-3.031,1.173-5.866,3.285-7.978l74.787-74.796c2.644-2.636,2.644-6.933,0-9.568
				c-1.272-1.281-2.978-1.986-4.783-1.986s-3.502,0.705-4.784,1.986l-74.795,74.785c-2.356,2.365-4.188,5.127-5.443,8.214
				c-1.2,2.987-1.805,6.129-1.805,9.343c0,3.213,0.605,6.353,1.805,9.332c1.255,3.095,3.087,5.857,5.443,8.213l153.175,153.175
				c2.357,2.356,5.109,4.188,8.195,5.434c2.979,1.2,6.12,1.813,9.324,1.813h0.053c3.213,0,6.345-0.613,9.325-1.813
				c3.086-1.245,5.848-3.077,8.204-5.434L644.69,547.542c3.772-3.791,6.896-8.81,9.279-14.909
				c2.274-5.885,3.482-11.905,3.501-17.411c0-1.363-0.081-2.69-0.234-3.954l-11.392-94.979c8.413-6.799,16.837-14.374,25.021-22.56
				c20.949-20.948,39.356-44.911,50.5-65.745C734.32,303.768,736.34,286.14,727.204,277.003z M559.182,444.788
				c3.315,3.317,8.559,6.166,16.791,6.166c1.415,0,2.922-0.086,4.521-0.267c-0.832,1.37-1.814,2.66-2.976,3.823
				c-3.791,3.792-8.833,5.88-14.195,5.88s-10.403-2.088-14.196-5.88c-7.827-7.828-7.827-20.563,0-28.391
				c3.793-3.792,8.834-5.88,14.196-5.88s10.403,2.088,14.196,5.879c2.87,2.871,4.76,6.46,5.511,10.361
				c-6.201,1.422-11.593,1.419-14.277-1.266c-2.644-2.644-6.931-2.643-9.573,0C556.536,437.858,556.536,442.145,559.182,444.788z
				 M709.428,321.599c-10.545,19.71-28.089,42.512-48.136,62.558c-5.712,5.713-11.533,11.099-17.369,16.114l-1.525-12.718
				c-0.786-6.354-3.801-12.33-8.719-17.266c-4.938-4.919-10.913-7.934-17.266-8.719l-12.716-1.524
				c5.043-5.874,10.431-11.688,16.112-17.371c47.738-47.739,90.463-63.452,97.819-56.096
				C721.047,289.993,719.836,302.146,709.428,321.599z"/>
		</g>
	</g>
	<g>
	</g>
	<g>
	</g>
	<g>
	</g>
	<g>
	</g>
	<g>
	</g>
	<g>
	</g>
	<g>
	</g>
	<g>
	</g>
	<g>
	</g>
	<g>
	</g>
	<g>
	</g>
	<g>
	</g>
	<g>
	</g>
	<g>
	</g>
	<g>
	</g>
</g>
</svg>
