<?xml version="1.0" encoding="utf-8"?>
<!-- Generator: Adobe Illustrator 16.0.0, SVG Export Plug-In . SVG Version: 6.00 Build 0)  -->
<!DOCTYPE svg PUBLIC "-//W3C//DTD SVG 1.1//EN" "http://www.w3.org/Graphics/SVG/1.1/DTD/svg11.dtd">
<svg version="1.1" id="Layer_1" xmlns="http://www.w3.org/2000/svg" xmlns:xlink="http://www.w3.org/1999/xlink" x="0px" y="0px"
	 width="1000px" height="1000px" viewBox="0 0 1000 1000" enable-background="new 0 0 1000 1000" xml:space="preserve">
<g>
	<g>
		<g>
			<path fill="#FFFFFF" d="M560.786,338.85c-4.302-30.156-30.552-52.899-61.054-52.899c-19.616,0-38.246,9.466-49.829,25.331
				c-2.366,3.235-1.658,7.774,1.577,10.14c3.226,2.357,7.774,1.658,10.136-1.582c8.867-12.131,23.113-19.376,38.115-19.376
				c23.328,0,43.397,17.384,46.688,40.434c0.519,3.621,3.624,6.233,7.176,6.233c0.338,0,0.688-0.025,1.034-0.072
				C558.596,346.489,561.353,342.814,560.786,338.85z"/>
		</g>
	</g>
	<g>
		<g>
			<path fill="#FFFFFF" d="M665.585,420.077l-21.769-36.281c-1.31-2.187-3.671-3.522-6.222-3.522h-20.86
				c-4.005,0-7.255,3.25-7.255,7.255c0,4.005,3.25,7.255,7.255,7.255h16.753l13.061,21.768H352.916l13.061-21.768h7.685
				c4.005,0,7.255-3.25,7.255-7.255c0-4.005-3.25-7.255-7.255-7.255h-11.792c-2.551,0-4.913,1.335-6.222,3.522l-21.768,36.281
				c-1.345,2.245-1.377,5.036-0.091,7.31c1.286,2.275,3.696,3.682,6.313,3.682h319.261c2.616,0,5.025-1.407,6.313-3.682
				C666.964,425.113,666.93,422.317,665.585,420.077z"/>
		</g>
	</g>
	<g>
		<g>
			<path fill="#FFFFFF" d="M629.416,353.173c-1.016-1.639-2.637-2.802-4.513-3.239l-98.913-23.135
				c-1.873-0.44-3.846-0.113-5.482,0.899c-1.633,1.016-2.798,2.638-3.235,4.513l-7.46,31.886c-0.913,3.901,1.51,7.804,5.413,8.714
				c3.9,0.914,7.808-1.51,8.718-5.413l5.808-24.818l84.781,19.832l-13.322,56.959c-0.914,3.901,1.51,7.804,5.412,8.714
				c0.56,0.129,1.114,0.191,1.662,0.191c3.296,0,6.278-2.258,7.054-5.601l14.977-64.024
				C630.756,356.778,630.433,354.806,629.416,353.173z"/>
		</g>
	</g>
	<g>
		<g>
			<path fill="#FFFFFF" d="M503.57,370.326l-6.612-55.918c-0.225-1.911-1.201-3.656-2.714-4.846
				c-1.514-1.19-3.425-1.735-5.344-1.509l-121.36,14.345c-3.977,0.472-6.821,4.077-6.352,8.059l11.022,93.263
				c0.438,3.692,3.569,6.407,7.198,6.407c0.283,0,0.574-0.019,0.863-0.051c3.975-0.472,6.819-4.077,6.352-8.059l-10.171-86.063
				l106.948-12.64l5.757,48.712c0.472,3.979,4.061,6.807,8.059,6.356C501.193,377.913,504.037,374.305,503.57,370.326z"/>
		</g>
	</g>
	<g>
		<g>
			<path fill="#FFFFFF" d="M560.955,421.055l-14.402-59.891c-0.451-1.869-1.626-3.486-3.265-4.492
				c-1.64-0.997-3.605-1.31-5.487-0.863L420.912,383.92c-3.896,0.936-6.294,4.855-5.358,8.751l7.198,29.935
				c0.935,3.901,4.855,6.301,8.749,5.359c3.897-0.936,6.294-4.855,5.359-8.752l-5.503-22.882l102.78-24.714l12.706,52.833
				c0.797,3.327,3.773,5.559,7.049,5.559c0.563,0,1.133-0.066,1.705-0.205C559.491,428.869,561.89,424.951,560.955,421.055z"/>
		</g>
	</g>
	<g>
		<g>
			<path fill="#FFFFFF" d="M666.615,423.442c-0.199-3.856-3.384-6.883-7.249-6.883H340.105c-3.865,0-7.049,3.025-7.249,6.883
				l-14.513,282.981c-0.102,1.984,0.617,3.928,1.985,5.369c1.371,1.438,3.271,2.257,5.261,2.257h348.284
				c1.987,0,3.89-0.815,5.268-2.257c1.366-1.441,2.085-3.382,1.984-5.369L666.615,423.442z M333.227,699.537l13.769-268.468h305.474
				l13.769,268.468H333.227z"/>
		</g>
	</g>
	<g>
		<g>
			<path fill="#FFFFFF" d="M554.152,445.58c-12.004,0-21.768,9.764-21.768,21.768s9.764,21.768,21.768,21.768
				s21.768-9.764,21.768-21.768S566.156,445.58,554.152,445.58z M554.152,474.604c-4.003,0-7.255-3.255-7.255-7.255
				c0-4,3.254-7.255,7.255-7.255c4,0,7.256,3.255,7.256,7.255C561.408,471.35,558.152,474.604,554.152,474.604z"/>
		</g>
	</g>
	<g>
		<g>
			<path fill="#FFFFFF" d="M445.313,445.58c-12.004,0-21.768,9.764-21.768,21.768s9.764,21.768,21.768,21.768
				c12.004,0,21.768-9.764,21.768-21.768S457.318,445.58,445.313,445.58z M445.313,474.604c-4,0-7.255-3.255-7.255-7.255
				c0-4,3.254-7.255,7.255-7.255c4.001,0,7.255,3.255,7.255,7.255C452.568,471.35,449.314,474.604,445.313,474.604z"/>
		</g>
	</g>
	<g>
		<g>
			<path fill="#FFFFFF" d="M554.152,467.347h-0.56c-4.005,0-7.255,3.25-7.255,7.255c0,0.991,0.195,1.937,0.56,2.798v37.109
				c0,26.004-21.158,47.164-47.165,47.164c-26.006,0-47.164-21.158-47.164-47.164v-39.905c0-4.005-3.25-7.255-7.255-7.255
				c-4.004,0-7.255,3.25-7.255,7.255v39.906c0,34.009,27.667,61.675,61.674,61.675c34.008,0,61.676-27.666,61.676-61.675v-39.906
				C561.408,470.6,558.157,467.347,554.152,467.347z"/>
		</g>
	</g>
	<g>
	</g>
	<g>
	</g>
	<g>
	</g>
	<g>
	</g>
	<g>
	</g>
	<g>
	</g>
	<g>
	</g>
	<g>
	</g>
	<g>
	</g>
	<g>
	</g>
	<g>
	</g>
	<g>
	</g>
	<g>
	</g>
	<g>
	</g>
	<g>
	</g>
</g>
</svg>
