<?xml version="1.0" encoding="utf-8"?>
<!-- Generator: Adobe Illustrator 16.0.0, SVG Export Plug-In . SVG Version: 6.00 Build 0)  -->
<!DOCTYPE svg PUBLIC "-//W3C//DTD SVG 1.1//EN" "http://www.w3.org/Graphics/SVG/1.1/DTD/svg11.dtd">
<svg version="1.1" id="Layer_1" xmlns="http://www.w3.org/2000/svg" xmlns:xlink="http://www.w3.org/1999/xlink" x="0px" y="0px"
	 width="1000px" height="1000px" viewBox="0 0 1000 1000" enable-background="new 0 0 1000 1000" xml:space="preserve">
<g>
	<g>
		<g>
			<path fill="#FFFFFF" d="M523.902,419.305c-19.132,0-34.697,15.565-34.697,34.697c0,19.132,15.565,34.698,34.697,34.698
				c19.133,0,34.697-15.565,34.697-34.698C558.6,434.87,543.035,419.305,523.902,419.305z M523.902,465.568
				c-6.377,0-11.565-5.188-11.565-11.566c0-6.377,5.188-11.566,11.565-11.566c6.378,0,11.566,5.189,11.566,11.566
				C535.469,460.38,530.28,465.568,523.902,465.568z"/>
		</g>
	</g>
	<g>
		<g>
			<path fill="#FFFFFF" d="M616.43,511.831c-19.132,0-34.697,15.565-34.697,34.698c0,19.132,15.565,34.697,34.697,34.697
				c19.133,0,34.697-15.565,34.697-34.697C651.127,527.396,635.563,511.831,616.43,511.831z M616.43,558.095
				c-6.377,0-11.565-5.188-11.565-11.565s5.188-11.566,11.565-11.566s11.566,5.188,11.566,11.566S622.807,558.095,616.43,558.095z"
				/>
		</g>
	</g>
	<g>
		<g>
			<path fill="#FFFFFF" d="M622.845,421.247c-5.313-3.542-12.495-2.106-16.039,3.208l-92.526,138.79
				c-3.544,5.315-2.107,12.495,3.208,16.039c5.314,3.542,12.495,2.107,16.039-3.208l92.527-138.791
				C629.597,431.971,628.16,424.79,622.845,421.247z"/>
		</g>
	</g>
	<g>
		<g>
			<path fill="#FFFFFF" d="M685.824,373.041H314.175c-6.387,0-11.566,5.179-11.566,11.566v69.395
				c0,6.388,5.179,11.566,11.566,11.566c19.132,0,34.698,15.565,34.698,34.698c0,19.133-15.565,34.697-34.698,34.697
				c-6.387,0-11.566,5.179-11.566,11.566v69.396c0,6.387,5.179,11.565,11.566,11.565h371.649c6.389,0,11.566-5.179,11.566-11.565
				V384.607C697.391,378.22,692.213,373.041,685.824,373.041z M674.259,604.358H418.268v-11.565c0-6.388-5.179-11.566-11.566-11.566
				c-6.388,0-11.566,5.179-11.566,11.566v11.565h-69.395v-47.425c26.363-5.373,46.264-28.741,46.264-56.668
				c0-27.927-19.9-51.294-46.264-56.667v-47.426H396.1v11.566c0,6.387,5.179,11.566,11.566,11.566
				c6.387,0,11.566-5.179,11.566-11.566v-11.566h255.027V604.358z"/>
		</g>
	</g>
	<g>
		<g>
			<path fill="#FFFFFF" d="M406.702,511.831c-6.388,0-11.566,5.179-11.566,11.566v23.132c0,6.388,5.179,11.565,11.566,11.565
				c6.387,0,11.566-5.178,11.566-11.565v-23.132C418.268,517.01,413.089,511.831,406.702,511.831z"/>
		</g>
	</g>
	<g>
		<g>
			<path fill="#FFFFFF" d="M406.702,442.436c-6.388,0-11.566,5.179-11.566,11.566v23.132c0,6.388,5.179,11.566,11.566,11.566
				c6.387,0,11.566-5.178,11.566-11.566v-23.132C418.268,447.615,413.089,442.436,406.702,442.436z"/>
		</g>
	</g>
	<g>
	</g>
	<g>
	</g>
	<g>
	</g>
	<g>
	</g>
	<g>
	</g>
	<g>
	</g>
	<g>
	</g>
	<g>
	</g>
	<g>
	</g>
	<g>
	</g>
	<g>
	</g>
	<g>
	</g>
	<g>
	</g>
	<g>
	</g>
	<g>
	</g>
</g>
</svg>
